<svg width="112" height="28" viewBox="0 0 112 28" fill="none" xmlns="http://www.w3.org/2000/svg">
<path d="M61.1566 13.5902C61.4923 11.8502 61.8383 10.1029 62.1784 8.36288C62.5618 6.38153 62.9481 4.40262 63.3374 2.42614C63.5053 1.59409 63.7943 1.37076 64.6264 1.35178C65.2978 1.34107 65.9703 1.34107 66.6437 1.35178C67.4466 1.37076 67.7458 1.73423 67.5955 2.51957C66.6388 7.45638 65.6788 12.3961 64.7154 17.3388C64.5694 18.1051 64.4235 18.8715 64.2673 19.6393C64.0892 20.5152 63.8001 20.7604 62.8849 20.7604C62.0631 20.7706 61.231 20.7604 60.4033 20.7604C59.3815 20.7604 59.1334 20.5823 58.8064 19.6014C57.6386 16.0863 56.4679 12.5679 55.2943 9.04603C55.2388 8.86795 55.1629 8.6811 55.0417 8.34536C54.706 10.0737 54.398 11.6444 54.0988 13.2063C53.6871 15.3098 53.2857 17.4234 52.8667 19.5269C52.6609 20.5648 52.4171 20.7516 51.3807 20.7604H49.8276C48.6875 20.7604 48.435 20.4685 48.6496 19.3299C49.3035 15.8995 49.9701 12.4715 50.6494 9.04603C51.0596 6.91482 51.48 4.79237 51.8916 2.6597C52.1062 1.5576 52.3485 1.34594 53.4419 1.34594H55.7205C56.8139 1.34594 57.0343 1.50505 57.3744 2.52394C58.5422 6.03996 59.71 9.5584 60.8778 13.0793C60.9332 13.2384 60.9902 13.4077 61.0456 13.5654C61.0802 13.5821 61.1182 13.5906 61.1566 13.5902Z" fill="#151515"/>
<path d="M82.9662 13.7492H79.2994C78.3184 13.7492 78.0571 13.4208 78.225 12.4588C78.5768 10.3553 78.5856 10.3407 80.7591 10.3407H87.2695C88.3249 10.3407 88.4928 10.5655 88.2592 11.5932C87.4096 15.2586 85.5602 18.2043 82.1283 19.9618C79.9241 21.0931 77.5521 21.4581 75.1143 20.9428C71.284 20.1385 68.7995 16.9416 68.8564 13.0062C68.9586 6.35858 74.9085 0.69189 81.5298 0.982377C84.0245 1.09478 86.2477 1.86989 87.6111 4.13248C88.0782 4.90906 88.3482 5.83453 88.592 6.72351C88.7978 7.49863 88.4461 7.86356 87.6388 7.88254C86.6681 7.90151 85.6872 7.88254 84.7062 7.88254C84.4897 7.89179 84.2754 7.83614 84.0907 7.72274C83.9061 7.60935 83.7595 7.44337 83.6698 7.24609C82.5108 5.1105 80.7591 4.39961 78.4542 5.24042C75.634 6.26223 74.1772 8.45183 73.6721 11.3173C73.5365 12.129 73.5464 12.9584 73.7013 13.7667C74.1684 16.1986 76.2792 17.5445 78.7636 17.0774C79.5467 16.9418 80.292 16.6416 80.9505 16.1967C81.609 15.7519 82.1657 15.1724 82.5838 14.4966C82.724 14.2542 82.8517 14.0047 82.9662 13.7492Z" fill="#1364F1"/>
<path d="M46.9652 11.2895C46.8075 7.92338 44.323 5.78341 40.97 6.07244C39.3906 6.20382 37.9995 6.81106 36.6916 7.88689C36.7193 6.58627 36.5792 6.44613 35.3559 6.44613H33.9268C32.6846 6.44613 32.4671 6.63298 32.2364 7.84018C31.6097 11.0944 30.9772 14.3511 30.3388 17.6102C29.7885 20.4421 29.2367 23.2666 28.7039 26.1087C28.5462 26.9685 28.8265 27.2867 29.6848 27.2955C30.3573 27.3052 31.0297 27.3052 31.7022 27.2955C32.5897 27.2867 32.87 27.0809 33.0481 26.2211C33.2626 25.1993 33.4495 24.1775 33.6553 23.1557C33.8976 21.912 34.1399 20.6596 34.3925 19.3779C37.2039 21.6974 40.2577 21.7996 43.1348 19.594C45.8543 17.4934 47.1243 14.6922 46.9652 11.2895ZM42.4823 12.9682C42.4265 13.9583 42.0501 14.9033 41.41 15.6607C40.7698 16.418 39.9007 16.9465 38.9337 17.1664C37.0463 17.5781 35.4406 16.2906 35.4406 14.352C35.4406 12.2296 37.1397 10.275 39.2359 9.97285C39.6558 9.90547 40.0856 9.9343 40.4928 10.0572C40.8999 10.18 41.2739 10.3937 41.5865 10.6821C41.8991 10.9706 42.1421 11.3262 42.2973 11.7222C42.4525 12.1182 42.5157 12.5442 42.4823 12.9682Z" fill="#151515"/>
<path d="M27.9509 6.44658C27.1101 6.41885 26.2605 6.42907 25.4095 6.44658C24.9249 6.4568 24.6067 6.72831 24.4665 7.19543C24.4008 7.40125 24.3541 7.60707 24.2797 7.88734C22.347 5.84371 20.0859 5.65249 17.6861 6.47578C14.2207 7.66254 11.7012 11.4301 11.6895 15.2911C11.6807 19.2937 14.4542 21.6672 18.4042 21.041C19.7676 20.8264 20.9354 20.1914 22.0273 19.3302C21.9441 20.5826 22.1207 20.7709 23.3411 20.7709C23.925 20.7709 24.5089 20.7797 25.0927 20.7709C25.9336 20.7607 26.2138 20.5359 26.3817 19.7039C26.7189 18.069 27.0357 16.4326 27.3539 14.7875C27.821 12.3833 28.2881 9.9806 28.7362 7.56912C28.8851 6.83779 28.6224 6.47578 27.9509 6.44658ZM23.2345 13.4066C23.0909 14.3215 22.6743 15.1717 22.0393 15.8458C21.4042 16.5199 20.5804 16.9865 19.6757 17.1844C17.8072 17.5771 16.238 16.2954 16.2292 14.3875C16.2292 12.2563 17.9196 10.2842 20.0114 9.98498C22.0098 9.70033 23.5615 11.3469 23.2345 13.4066Z" fill="#151515"/>
<path d="M4.49765 5.33396H1.28623C0.0440003 5.3252 -0.142846 5.09164 0.0819534 3.84795C0.175376 3.36186 0.258581 2.86555 0.362222 2.37946C0.519873 1.64959 0.838095 1.37078 1.5665 1.35764C5.55644 1.34888 9.54638 1.34888 13.5363 1.35764C14.3392 1.35764 14.6384 1.74155 14.4881 2.52543C14.3859 3.10932 14.2647 3.6757 14.1523 4.245C13.9845 5.05807 13.7042 5.30184 12.8634 5.32082C11.8445 5.34028 10.8266 5.34028 9.80962 5.32082C9.36002 5.3106 9.13668 5.39527 9.03304 5.91931C8.18785 10.3919 7.30909 14.866 6.45661 19.3299C6.21429 20.5823 6.00847 20.7604 4.7385 20.7604C4.11228 20.7604 3.47729 20.7706 2.85253 20.7604C1.92706 20.7517 1.63803 20.4145 1.8059 19.4992C2.15186 17.6468 2.52555 15.7959 2.88902 13.9449C3.42182 11.2342 3.95463 8.50304 4.48597 5.78356C4.49765 5.66094 4.48889 5.53978 4.49765 5.33396Z" fill="#151515"/>
<path d="M98.1694 15.7964C98.6116 15.7969 99.0439 15.6664 99.4118 15.4211C99.7797 15.1759 100.067 14.8271 100.236 14.4188C100.406 14.0105 100.451 13.561 100.365 13.1273C100.279 12.6936 100.066 12.2951 99.7537 11.9823C99.4412 11.6694 99.043 11.4563 98.6094 11.3698C98.1758 11.2833 97.7263 11.3274 97.3178 11.4965C96.9093 11.6656 96.56 11.952 96.3143 12.3196C96.0686 12.6872 95.9375 13.1194 95.9375 13.5615C95.9373 13.8548 95.9949 14.1453 96.107 14.4163C96.219 14.6873 96.3834 14.9337 96.5906 15.1412C96.7979 15.3487 97.044 15.5134 97.3149 15.6258C97.5858 15.7382 97.8761 15.7962 98.1694 15.7964Z" fill="#1364F1"/>
<path d="M105.443 16.3581C104.877 17.8306 103.877 19.0969 102.577 19.9897C101.276 20.8826 99.7352 21.3601 98.1575 21.3592C97.2051 21.3588 96.2611 21.1811 95.3738 20.8351C93.4467 20.0905 91.8935 18.612 91.0548 16.7239C90.2161 14.8358 90.1603 12.6921 90.8997 10.763C90.9184 10.7146 90.9465 10.6705 90.9824 10.6332C91.0183 10.5958 91.0613 10.566 91.1089 10.5455C91.1565 10.525 91.2077 10.5141 91.2595 10.5136C91.3113 10.5131 91.3627 10.5229 91.4106 10.5425L93.644 11.4023C93.693 11.4207 93.7377 11.4487 93.7756 11.4847C93.8135 11.5207 93.8438 11.5639 93.8646 11.6119C93.8855 11.6598 93.8964 11.7115 93.8969 11.7637C93.8974 11.816 93.8873 11.8678 93.8674 11.9161C93.5407 12.7657 93.4733 13.6931 93.6738 14.581C93.8743 15.4688 94.3337 16.2773 94.9938 16.904C95.6538 17.5308 96.485 17.9477 97.382 18.102C98.2791 18.2563 99.2017 18.141 100.033 17.7708C100.865 17.4006 101.568 16.7921 102.053 16.0222C102.539 15.2523 102.785 14.3557 102.761 13.4458C102.737 12.5359 102.444 11.6536 101.918 10.9105C101.393 10.1674 100.658 9.59684 99.8085 9.2711C99.0725 8.98233 98.2728 8.89516 97.4919 9.01857C97.4234 9.02889 97.3534 9.02111 97.2889 8.99602C97.2243 8.97093 97.1675 8.92939 97.1239 8.87553C97.0804 8.82167 97.0517 8.75736 97.0407 8.68899C97.0297 8.62062 97.0368 8.55056 97.0613 8.48577L97.9955 6.04509C98.0241 5.96749 98.0768 5.90109 98.1459 5.85564C98.215 5.81019 98.2968 5.78808 98.3794 5.79256C99.2585 5.81491 100.127 5.98873 100.947 6.30639C101.904 6.66941 102.779 7.21777 103.523 7.91998C104.267 8.6222 104.865 9.46444 105.283 10.3984C105.701 11.3323 105.93 12.3395 105.957 13.3623C105.985 14.385 105.81 15.4031 105.443 16.3581Z" fill="#1364F1"/>
<path d="M111.092 18.4148C111.054 18.5133 110.979 18.5929 110.883 18.6366C110.787 18.6803 110.678 18.6845 110.579 18.6484L108.132 17.7039C108.083 17.6857 108.038 17.6578 108 17.6219C107.962 17.5859 107.932 17.5427 107.911 17.4948C107.89 17.4468 107.878 17.3951 107.878 17.3428C107.877 17.2904 107.887 17.2385 107.907 17.1901C108.883 14.6485 108.811 11.8236 107.706 9.33535C106.601 6.84711 104.554 4.89887 102.014 3.91822C101.201 3.60432 100.35 3.39821 99.4831 3.30513C99.4227 3.29939 99.3646 3.27971 99.3131 3.24764C99.2617 3.21556 99.2184 3.17197 99.1867 3.1203C99.155 3.06863 99.1357 3.01031 99.1304 2.94992C99.1251 2.88953 99.1339 2.82873 99.1561 2.77233L100.118 0.257208C100.152 0.171619 100.213 0.0999725 100.293 0.0540692C100.372 0.00816596 100.465 -0.00925587 100.556 0.00467367C101.471 0.161113 102.368 0.405537 103.236 0.73454C110.271 3.43651 113.791 11.3745 111.092 18.4148Z" fill="#1364F1"/>
</svg>
