<svg width="16" height="16" viewBox="0 0 16 16" fill="none" xmlns="http://www.w3.org/2000/svg">
<g clip-path="url(#clip0_874_11917)">
<path d="M11.3335 2.00001C11.5033 1.79936 11.7133 1.63605 11.9502 1.52046C12.187 1.40488 12.4456 1.33956 12.7093 1.32868C12.973 1.3178 13.236 1.36159 13.4818 1.45727C13.7275 1.55294 13.9504 1.69839 14.1364 1.88435C14.3223 2.07032 14.4672 2.29272 14.5619 2.53737C14.6565 2.78202 14.6987 3.04356 14.6859 3.30533C14.6731 3.56709 14.6055 3.82333 14.4874 4.05772C14.3694 4.29211 14.2034 4.4995 14.0002 4.66667L5.00016 13.6667L1.3335 14.6667L2.3335 11L11.3335 2.00001Z" stroke="#1364F1" stroke-linecap="round" stroke-linejoin="round"/>
<path d="M10 3.33333L12.6667 5.99999" stroke="#1364F1" stroke-linecap="round" stroke-linejoin="round"/>
</g>
<defs>
<clipPath id="clip0_874_11917">
<rect width="16" height="16" fill="white"/>
</clipPath>
</defs>
</svg>
