<svg width="48" height="48" viewBox="0 0 48 48" fill="none" xmlns="http://www.w3.org/2000/svg">
<g clip-path="url(#clip0_920_6688)">
<path d="M43.8454 46.7418H4.15446C2.65562 46.7418 1.31201 45.9675 0.560385 44.6708C-0.175856 43.4004 -0.187111 41.9021 0.529435 40.5595L20.3751 3.3843C21.0857 2.05307 22.4409 1.2583 23.9999 1.2583C25.5591 1.2583 26.9141 2.05307 27.6249 3.3843L47.4705 40.5594C48.1872 41.9019 48.1758 43.4005 47.4395 44.6708C46.688 45.9675 45.3445 46.7418 43.8454 46.7418Z" fill="#FF4C04"/>
<path d="M47.4705 40.5594L27.6249 3.3843C26.9142 2.05307 25.5591 1.2583 24 1.2583V46.7418H43.8456C45.3445 46.7418 46.6881 45.9675 47.4396 44.6708C48.1758 43.4005 48.1872 41.9019 47.4705 40.5594Z" fill="#E10000"/>
<path d="M23.9996 40.6472C21.931 40.6472 20.248 38.9644 20.248 36.8958C20.248 34.8272 21.931 33.1442 23.9996 33.1442C26.0682 33.1442 27.7511 34.8272 27.7511 36.8958C27.7511 38.9644 26.0682 40.6472 23.9996 40.6472ZM23.9997 29.3927C21.931 29.3927 20.248 27.7097 20.248 25.6411V17.5284C20.248 15.4598 21.931 13.7769 23.9996 13.7769C26.0682 13.7769 27.7511 15.4598 27.7511 17.5284V25.6411C27.7511 27.7097 26.0683 29.3927 23.9997 29.3927Z" fill="#FFF3F3"/>
<path d="M24.0001 13.7769H24V29.3927H24.0002C26.0688 29.3927 27.7516 27.7097 27.7516 25.6411V17.5284C27.7516 15.4599 26.0687 13.7769 24.0001 13.7769ZM24.0001 33.1442H24V40.6472H24.0001C26.0687 40.6472 27.7516 38.9644 27.7516 36.8958C27.7516 34.8272 26.0687 33.1442 24.0001 33.1442Z" fill="#DAD0CB"/>
</g>
<defs>
<clipPath id="clip0_920_6688">
<rect width="48" height="48" fill="white"/>
</clipPath>
</defs>
</svg>
