<svg width="16" height="16" viewBox="0 0 16 16" fill="none" xmlns="http://www.w3.org/2000/svg">
<path d="M3.39241 16.0004C3.28514 16.0005 3.17918 15.9768 3.08208 15.9312C2.98498 15.8856 2.89914 15.8192 2.83067 15.7366C2.7622 15.654 2.71278 15.5574 2.68595 15.4535C2.65911 15.3496 2.65551 15.2411 2.67541 15.1357L2.98322 13.4946C2.99319 13.432 2.98745 13.3679 2.9665 13.308C2.94556 13.2482 2.91007 13.1945 2.86323 13.1518C2.18162 12.5012 1.63903 11.7192 1.26826 10.8529C0.89748 9.98671 0.706225 9.05429 0.706055 8.11204C0.732679 6.20254 1.5155 4.38153 2.88284 3.04838C4.25017 1.71522 6.09041 0.978748 7.99998 1.00047C9.90954 0.978748 11.7498 1.71522 13.1171 3.04838C14.4845 4.38153 15.2673 6.20254 15.2939 8.11204C15.2673 10.0215 14.4845 11.8426 13.1171 13.1757C11.7498 14.5089 9.90954 15.2453 7.99998 15.2236C7.27396 15.2226 6.55204 15.1149 5.85739 14.9038C5.81014 14.8885 5.76033 14.8827 5.71082 14.8867C5.66132 14.8907 5.61309 14.9044 5.56891 14.9271L3.73923 15.9118C3.63278 15.9697 3.51358 16.0001 3.39241 16.0004ZM7.99998 1.72986C6.28382 1.70803 4.62904 2.36762 3.39847 3.56401C2.16789 4.7604 1.46196 6.39595 1.43545 8.11204C1.436 8.95652 1.60784 9.7921 1.94057 10.5683C2.2733 11.3444 2.76001 12.045 3.37125 12.6277C3.50468 12.7544 3.60453 12.9122 3.66183 13.087C3.71912 13.2618 3.73206 13.4481 3.69948 13.6292L3.39204 15.2703L5.22172 14.2856C5.35035 14.2171 5.49132 14.1747 5.63643 14.1611C5.78155 14.1474 5.92793 14.1628 6.06709 14.2061C6.69373 14.3966 7.34502 14.4937 7.99998 14.4942C9.71613 14.5161 11.3709 13.8565 12.6015 12.6601C13.8321 11.4637 14.538 9.82813 14.5645 8.11204C14.538 6.39595 13.8321 4.7604 12.6015 3.56401C11.3709 2.36762 9.71613 1.70803 7.99998 1.72986Z" fill="white"/>
<path d="M7.9997 10.483C7.90298 10.483 7.81021 10.4446 7.74182 10.3762C7.67343 10.3078 7.635 10.2151 7.635 10.1183V8.91485C7.63478 8.67901 7.71115 8.44947 7.85262 8.26077C7.99409 8.07208 8.19302 7.93443 8.41947 7.86853C8.67844 7.79072 8.91069 7.64246 9.09028 7.4403C9.26988 7.23815 9.38975 6.99005 9.43651 6.72371C9.48327 6.45738 9.45508 6.18328 9.35509 5.93204C9.25511 5.68079 9.08725 5.46229 8.87027 5.30091C8.6533 5.13953 8.39573 5.04164 8.12634 5.01817C7.85695 4.99469 7.58634 5.04656 7.34472 5.16797C7.1031 5.28938 6.89998 5.47556 6.75804 5.70572C6.6161 5.93589 6.54093 6.20097 6.54092 6.47138C6.54092 6.5681 6.50249 6.66087 6.4341 6.72926C6.36571 6.79765 6.27294 6.83608 6.17622 6.83608C6.0795 6.83608 5.98673 6.79765 5.91834 6.72926C5.84995 6.66087 5.81152 6.5681 5.81152 6.47138C5.8121 5.89122 6.04283 5.33498 6.45307 4.92475C6.8633 4.51451 7.41954 4.28378 7.9997 4.2832C8.52527 4.28273 9.03345 4.47144 9.43133 4.81482C9.82921 5.15821 10.0902 5.63332 10.1666 6.15331C10.243 6.6733 10.1297 7.20341 9.84739 7.64672C9.56509 8.09004 9.13266 8.41694 8.62917 8.56766C8.55348 8.58921 8.4868 8.63467 8.43908 8.69725C8.39136 8.75982 8.36516 8.83616 8.3644 8.91485V10.1183C8.3644 10.2151 8.32597 10.3078 8.25758 10.3762C8.18919 10.4446 8.09642 10.483 7.9997 10.483Z" fill="white"/>
<path d="M8.00017 12.1234C8.30229 12.1234 8.54721 11.8785 8.54721 11.5763C8.54721 11.2742 8.30229 11.0293 8.00017 11.0293C7.69805 11.0293 7.45312 11.2742 7.45312 11.5763C7.45312 11.8785 7.69805 12.1234 8.00017 12.1234Z" fill="white"/>
</svg>
