<svg width="16" height="16" viewBox="0 0 16 16" fill="none" xmlns="http://www.w3.org/2000/svg">
<path d="M15.5686 6.95922L15.5675 6.95813L9.04079 0.431656C8.76257 0.153281 8.3927 0 7.99929 0C7.60585 0 7.23598 0.153188 6.95767 0.431531L0.434321 6.95469C0.432134 6.95688 0.429946 6.95919 0.427759 6.96141C-0.143553 7.53597 -0.142554 8.46822 0.430571 9.04134C0.692384 9.30331 1.03823 9.45503 1.40798 9.47091C1.42298 9.47237 1.43813 9.47309 1.45338 9.47309H1.71351V14.2762C1.71351 15.2267 2.48682 16 3.43751 16H5.99095C6.24976 16 6.4597 15.7902 6.4597 15.5312V11.7656C6.4597 11.3319 6.81251 10.9791 7.24623 10.9791H8.75232C9.18607 10.9791 9.53882 11.3319 9.53882 11.7656V15.5312C9.53882 15.7902 9.74866 16 10.0076 16H12.561C13.5117 16 14.285 15.2267 14.285 14.2762V9.47313H14.5263C14.9196 9.47313 15.2894 9.31994 15.5679 9.04163C16.1416 8.46753 16.1419 7.53369 15.5686 6.95922Z" fill="white"/>
</svg>
