<svg width="165" height="40" viewBox="0 0 165 40" fill="none" xmlns="http://www.w3.org/2000/svg">
<path d="M89.5958 19.9101C90.0877 17.361 90.5945 14.8011 91.0928 12.252C91.6546 9.34925 92.2206 6.45009 92.7908 3.55449C93.0368 2.33551 93.4602 2.00831 94.6792 1.98051C95.6629 1.96483 96.6481 1.96483 97.6347 1.98051C98.8109 2.00831 99.2493 2.54081 99.029 3.69136C97.6275 10.9239 96.2211 18.1608 94.8096 25.402C94.5958 26.5247 94.3819 27.6474 94.1531 28.7723C93.8922 30.0554 93.4688 30.4147 92.1279 30.4147C90.9239 30.4297 89.7049 30.4147 88.4923 30.4147C86.9954 30.4147 86.6318 30.1538 86.1528 28.7167C84.4419 23.5671 82.7268 18.4124 81.0074 13.2528C80.9261 12.9919 80.8149 12.7182 80.6374 12.2263C80.1456 14.7584 79.6943 17.0595 79.2559 19.3477C78.6529 22.4294 78.0648 25.526 77.451 28.6076C77.1495 30.1282 76.7923 30.4019 75.2739 30.4147H72.9985C71.3283 30.4147 70.9583 29.987 71.2727 28.3189C72.2308 23.2933 73.2074 18.2713 74.2025 13.2528C74.8035 10.1305 75.4194 7.02108 76.0224 3.89666C76.3368 2.28205 76.6918 1.97196 78.2936 1.97196H81.6319C83.2336 1.97196 83.5566 2.20506 84.0548 3.69777C85.7657 8.84883 87.4765 14.0035 89.1874 19.1617C89.2686 19.3948 89.352 19.6428 89.4333 19.8738C89.4839 19.8983 89.5396 19.9108 89.5958 19.9101Z" fill="white"/>
<path d="M121.547 20.1433H116.175C114.738 20.1433 114.355 19.6621 114.601 18.2528C115.116 15.1712 115.129 15.1498 118.313 15.1498H127.851C129.397 15.1498 129.643 15.4791 129.301 16.9846C128.056 22.3546 125.347 26.6702 120.319 29.245C117.09 30.9024 113.615 31.437 110.043 30.6821C104.432 29.5037 100.792 24.8203 100.875 19.0548C101.025 9.31579 109.742 1.01393 119.442 1.4395C123.097 1.60417 126.354 2.73974 128.352 6.0545C129.036 7.19221 129.432 8.54805 129.789 9.85043C130.09 10.986 129.575 11.5206 128.392 11.5484C126.97 11.5762 125.533 11.5484 124.096 11.5484C123.779 11.562 123.465 11.4805 123.194 11.3143C122.924 11.1482 122.709 10.905 122.577 10.616C120.879 7.48733 118.313 6.44585 114.936 7.67766C110.805 9.17465 108.67 12.3825 107.931 16.5805C107.732 17.7697 107.746 18.9848 107.973 20.169C108.658 23.7318 111.75 25.7035 115.39 25.0192C116.537 24.8205 117.629 24.3807 118.594 23.729C119.558 23.0773 120.374 22.2283 120.986 21.2382C121.192 20.8831 121.379 20.5177 121.547 20.1433Z" fill="#1364F1"/>
<path d="M68.8057 16.5398C68.5748 11.6083 64.9349 8.47313 60.0227 8.89657C57.7088 9.08904 55.6707 9.97867 53.7546 11.5548C53.7952 9.64934 53.5899 9.44404 51.7978 9.44404H49.7042C47.8843 9.44404 47.5656 9.71777 47.2277 11.4864C46.3096 16.2539 45.3829 21.025 44.4476 25.7997C43.6414 29.9485 42.833 34.0866 42.0524 38.2504C41.8215 39.51 42.2321 39.9762 43.4895 39.989C44.4747 40.0033 45.4599 40.0033 46.445 39.989C47.7453 39.9762 48.1559 39.6746 48.4168 38.415C48.7311 36.918 49.0049 35.421 49.3064 33.9241C49.6614 32.102 50.0164 30.2671 50.3864 28.3895C54.5052 31.7876 58.9791 31.9373 63.1942 28.706C67.1783 25.6286 69.0388 21.5247 68.8057 16.5398ZM62.2382 18.9991C62.1565 20.4496 61.6051 21.8341 60.6672 22.9436C59.7294 24.0532 58.456 24.8274 57.0394 25.1496C54.2743 25.7526 51.9218 23.8664 51.9218 21.0264C51.9218 17.917 54.4111 15.0535 57.4821 14.6108C58.0973 14.5121 58.7269 14.5543 59.3235 14.7343C59.92 14.9143 60.4679 15.2274 60.9259 15.6499C61.3838 16.0724 61.7399 16.5934 61.9672 17.1736C62.1945 17.7537 62.2872 18.3779 62.2382 18.9991Z" fill="white"/>
<path d="M40.9495 9.44426C39.7177 9.40363 38.473 9.4186 37.2263 9.44426C36.5163 9.45923 36.0501 9.85701 35.8448 10.5413C35.7485 10.8429 35.6801 11.1444 35.571 11.555C32.7396 8.56104 29.427 8.28089 25.9112 9.48704C20.8343 11.2257 17.1431 16.7453 17.126 22.4018C17.1132 28.2657 21.1764 31.743 26.9634 30.8255C28.9608 30.5112 30.6716 29.5809 32.2712 28.3191C32.1493 30.154 32.4081 30.4299 34.1959 30.4299C35.0514 30.4299 35.9068 30.4427 36.7622 30.4299C37.994 30.4149 38.4046 30.0856 38.6505 28.8666C39.1446 26.4714 39.6086 24.0741 40.0748 21.664C40.7592 18.1418 41.4435 14.6217 42.1 11.0888C42.3182 10.0174 41.9332 9.48704 40.9495 9.44426ZM34.0398 19.6409C33.8295 20.9813 33.2191 22.2268 32.2888 23.2144C31.3584 24.202 30.1515 24.8855 28.826 25.1755C26.0887 25.7507 23.7897 23.8731 23.7769 21.078C23.7769 17.9557 26.2534 15.0665 29.3179 14.6281C32.2456 14.2111 34.5189 16.6234 34.0398 19.6409Z" fill="white"/>
<path d="M6.58919 7.81454H1.88437C0.0644618 7.80171 -0.209273 7.45954 0.120064 5.63749C0.256932 4.92535 0.378829 4.19824 0.530666 3.4861C0.76163 2.41683 1.22784 2.00836 2.29497 1.98912C8.14035 1.97628 13.9857 1.97628 19.8311 1.98912C21.0073 1.98912 21.4457 2.55156 21.2254 3.69996C21.0758 4.55538 20.8983 5.38514 20.7336 6.21918C20.4876 7.41035 20.077 7.76749 18.8452 7.79529C17.3525 7.8238 15.8612 7.8238 14.3714 7.79529C13.7127 7.78032 13.3855 7.90436 13.2337 8.6721C11.9955 15.2246 10.708 21.7793 9.45913 28.319C9.10413 30.1539 8.80259 30.4148 6.94205 30.4148C6.02461 30.4148 5.09434 30.4297 4.17904 30.4148C2.8232 30.4019 2.39976 29.9079 2.6457 28.5671C3.15253 25.8532 3.7 23.1416 4.2325 20.4299C5.01307 16.4586 5.79365 12.4573 6.57208 8.47321C6.58919 8.29357 6.57636 8.11607 6.58919 7.81454Z" fill="white"/>
<path d="M143.822 23.142C144.469 23.1428 145.103 22.9515 145.642 22.5923C146.181 22.233 146.601 21.722 146.85 21.1238C147.098 20.5256 147.163 19.8672 147.038 19.2318C146.912 18.5964 146.6 18.0126 146.143 17.5542C145.685 17.0959 145.101 16.7837 144.466 16.657C143.831 16.5303 143.172 16.5949 142.574 16.8426C141.975 17.0903 141.464 17.5099 141.104 18.0484C140.744 18.5869 140.552 19.2201 140.552 19.8679C140.551 20.2976 140.636 20.7231 140.8 21.1202C140.964 21.5173 141.205 21.8781 141.509 22.1821C141.812 22.4862 142.173 22.7274 142.57 22.8921C142.967 23.0568 143.392 23.1417 143.822 23.142Z" fill="#1364F1"/>
<path d="M154.478 23.965C153.648 26.1223 152.184 27.9774 150.279 29.2855C148.373 30.5935 146.116 31.293 143.804 31.2917C142.409 31.2912 141.026 31.0309 139.726 30.524C136.903 29.433 134.627 27.267 133.398 24.5009C132.17 21.7347 132.088 18.5942 133.171 15.768C133.199 15.6972 133.24 15.6325 133.293 15.5778C133.345 15.5231 133.408 15.4794 133.478 15.4494C133.548 15.4193 133.623 15.4034 133.698 15.4027C133.774 15.402 133.85 15.4163 133.92 15.445L137.192 16.7046C137.264 16.7315 137.329 16.7726 137.385 16.8253C137.44 16.8781 137.485 16.9414 137.515 17.0117C137.546 17.0819 137.562 17.1576 137.562 17.2341C137.563 17.3107 137.548 17.3866 137.519 17.4574C137.04 18.7021 136.942 20.0607 137.236 21.3615C137.529 22.6622 138.202 23.8466 139.169 24.7648C140.136 25.6831 141.354 26.2938 142.668 26.5198C143.982 26.7459 145.334 26.577 146.552 26.0347C147.771 25.4923 148.8 24.6008 149.512 23.4729C150.223 22.345 150.584 21.0315 150.549 19.6985C150.514 18.3654 150.084 17.0728 149.314 15.9841C148.544 14.8954 147.468 14.0596 146.223 13.5824C145.145 13.1593 143.973 13.0316 142.829 13.2124C142.729 13.2275 142.626 13.2161 142.532 13.1793C142.437 13.1426 142.354 13.0817 142.29 13.0028C142.226 12.9239 142.184 12.8297 142.168 12.7295C142.152 12.6294 142.162 12.5267 142.198 12.4318L143.567 8.85615C143.609 8.74246 143.686 8.64519 143.787 8.5786C143.888 8.51202 144.008 8.47963 144.129 8.48618C145.417 8.51893 146.69 8.77358 147.891 9.23895C149.292 9.7708 150.575 10.5742 151.665 11.6029C152.755 12.6317 153.631 13.8656 154.243 15.2338C154.855 16.6021 155.191 18.0777 155.231 19.576C155.271 21.0744 155.015 22.5659 154.478 23.965Z" fill="#1364F1"/>
<path d="M162.752 26.9783C162.697 27.1226 162.587 27.2392 162.446 27.3032C162.305 27.3672 162.145 27.3734 162 27.3205L158.415 25.9368C158.344 25.9101 158.278 25.8692 158.222 25.8166C158.166 25.7639 158.122 25.7006 158.091 25.6303C158.06 25.5601 158.044 25.4844 158.043 25.4077C158.042 25.331 158.057 25.2549 158.086 25.184C159.516 21.4605 159.409 17.3219 157.791 13.6766C156.172 10.0312 153.174 7.17699 149.453 5.74031C148.261 5.28044 147.014 4.97847 145.744 4.84212C145.656 4.83371 145.571 4.80488 145.495 4.75788C145.42 4.71089 145.357 4.64703 145.31 4.57134C145.264 4.49564 145.236 4.41019 145.228 4.32172C145.22 4.23325 145.233 4.14418 145.265 4.06154L146.675 0.376817C146.724 0.251427 146.814 0.146463 146.931 0.079213C147.047 0.0119634 147.183 -0.0135601 147.316 0.00684706C148.656 0.236035 149.971 0.594123 151.243 1.07612C161.548 5.03459 166.707 16.664 162.752 26.9783Z" fill="#1364F1"/>
</svg>
