<svg width="165" height="40" viewBox="0 0 165 40" fill="none" xmlns="http://www.w3.org/2000/svg">
<path d="M89.5958 19.9101C90.0877 17.361 90.5945 14.8011 91.0928 12.252C91.6546 9.34925 92.2206 6.45009 92.7908 3.55449C93.0368 2.33551 93.4602 2.00831 94.6792 1.98051C95.6629 1.96483 96.6481 1.96483 97.6347 1.98051C98.8109 2.00831 99.2493 2.54081 99.029 3.69136C97.6275 10.9239 96.2211 18.1608 94.8096 25.402C94.5958 26.5247 94.3819 27.6474 94.1531 28.7723C93.8922 30.0554 93.4688 30.4147 92.1279 30.4147C90.9239 30.4297 89.7049 30.4147 88.4923 30.4147C86.9954 30.4147 86.6318 30.1538 86.1528 28.7167C84.4419 23.5671 82.7268 18.4124 81.0074 13.2528C80.9261 12.9919 80.8149 12.7182 80.6374 12.2263C80.1456 14.7584 79.6943 17.0595 79.2559 19.3477C78.6529 22.4294 78.0648 25.526 77.451 28.6076C77.1495 30.1282 76.7923 30.4019 75.2739 30.4147H72.9985C71.3283 30.4147 70.9583 29.987 71.2727 28.3189C72.2308 23.2933 73.2074 18.2713 74.2025 13.2528C74.8035 10.1305 75.4194 7.02108 76.0224 3.89666C76.3368 2.28205 76.6918 1.97196 78.2936 1.97196H81.6319C83.2336 1.97196 83.5566 2.20506 84.0548 3.69777C85.7657 8.84883 87.4765 14.0035 89.1874 19.1617C89.2686 19.3948 89.352 19.6428 89.4333 19.8738C89.4839 19.8983 89.5396 19.9108 89.5958 19.9101Z" fill="#151515"/>
<path d="M121.547 20.143H116.175C114.738 20.143 114.355 19.6619 114.601 18.2526C115.116 15.1709 115.129 15.1495 118.313 15.1495H127.851C129.398 15.1495 129.643 15.4789 129.301 16.9844C128.057 22.3543 125.347 26.6699 120.319 29.2447C117.09 30.9021 113.615 31.4367 110.044 30.6818C104.432 29.5035 100.792 24.8201 100.876 19.0545C101.025 9.31555 109.742 1.01368 119.443 1.43926C123.097 1.60392 126.354 2.7395 128.352 6.05425C129.036 7.19196 129.432 8.54781 129.789 9.85019C130.09 10.9858 129.575 11.5204 128.392 11.5482C126.97 11.576 125.533 11.5482 124.096 11.5482C123.779 11.5617 123.465 11.4802 123.194 11.3141C122.924 11.148 122.709 10.9048 122.578 10.6158C120.88 7.48708 118.313 6.44561 114.937 7.67742C110.805 9.1744 108.671 12.3822 107.931 16.5802C107.732 17.7695 107.747 18.9845 107.974 20.1687C108.658 23.7315 111.75 25.7033 115.39 25.0189C116.537 24.8202 117.629 24.3805 118.594 23.7288C119.559 23.077 120.374 22.2281 120.987 21.238C121.192 20.8829 121.379 20.5174 121.547 20.143Z" fill="#1364F1"/>
<path d="M68.8057 16.5395C68.5748 11.608 64.9349 8.47289 60.0227 8.89632C57.7088 9.08879 55.6707 9.97843 53.7546 11.5545C53.7952 9.64909 53.5899 9.44379 51.7978 9.44379H49.7042C47.8843 9.44379 47.5656 9.71753 47.2277 11.4861C46.3096 16.2537 45.3829 21.0248 44.4476 25.7995C43.6414 29.9482 42.833 34.0863 42.0524 38.2501C41.8215 39.5097 42.2321 39.9759 43.4895 39.9888C44.4747 40.003 45.4599 40.003 46.445 39.9888C47.7453 39.9759 48.1559 39.6744 48.4168 38.4148C48.7311 36.9178 49.0049 35.4208 49.3064 33.9238C49.6614 32.1018 50.0164 30.2669 50.3864 28.3892C54.5052 31.7874 58.9791 31.9371 63.1942 28.7057C67.1783 25.6284 69.0388 21.5245 68.8057 16.5395ZM62.2382 18.9988C62.1565 20.4493 61.6051 21.8339 60.6672 22.9434C59.7294 24.0529 58.456 24.8272 57.0394 25.1493C54.2743 25.7524 51.9218 23.8662 51.9218 21.0262C51.9218 17.9167 54.4111 15.0532 57.4821 14.6105C58.0973 14.5118 58.7269 14.5541 59.3235 14.7341C59.92 14.9141 60.4679 15.2271 60.9259 15.6497C61.3838 16.0722 61.7399 16.5932 61.9672 17.1733C62.1945 17.7535 62.2872 18.3777 62.2382 18.9988Z" fill="#151515"/>
<path d="M40.9497 9.44402C39.7179 9.40339 38.4733 9.41836 37.2265 9.44402C36.5165 9.45899 36.0503 9.85676 35.845 10.5411C35.7488 10.8426 35.6803 11.1442 35.5713 11.5548C32.7398 8.5608 29.4272 8.28065 25.9114 9.48679C20.8345 11.2254 17.1434 16.745 17.1263 22.4015C17.1134 28.2654 21.1767 31.7427 26.9636 30.8253C28.961 30.5109 30.6719 29.5806 32.2715 28.3189C32.1496 30.1538 32.4084 30.4296 34.1962 30.4296C35.0516 30.4296 35.907 30.4425 36.7625 30.4296C37.9943 30.4147 38.4049 30.0853 38.6508 28.8664C39.1448 26.4712 39.6089 24.0739 40.0751 21.6637C40.7594 18.1415 41.4437 14.6215 42.1003 11.0886C42.3184 10.0172 41.9335 9.48679 40.9497 9.44402ZM34.0401 19.6406C33.8297 20.981 33.2194 22.2266 32.289 23.2142C31.3587 24.2018 30.1517 24.8853 28.8263 25.1752C26.0889 25.7505 23.79 23.8728 23.7772 21.0778C23.7772 17.9555 26.2536 15.0663 29.3181 14.6279C32.2458 14.2109 34.5191 16.6231 34.0401 19.6406Z" fill="#151515"/>
<path d="M6.58919 7.81454H1.88437C0.0644618 7.80171 -0.209273 7.45954 0.120064 5.63749C0.256932 4.92535 0.378829 4.19824 0.530666 3.4861C0.76163 2.41683 1.22784 2.00836 2.29497 1.98912C8.14035 1.97628 13.9857 1.97628 19.8311 1.98912C21.0073 1.98912 21.4457 2.55156 21.2254 3.69996C21.0758 4.55538 20.8983 5.38514 20.7336 6.21918C20.4876 7.41035 20.077 7.76749 18.8452 7.79529C17.3525 7.8238 15.8612 7.8238 14.3714 7.79529C13.7127 7.78032 13.3855 7.90436 13.2337 8.6721C11.9955 15.2246 10.708 21.7793 9.45913 28.319C9.10413 30.1539 8.80259 30.4148 6.94205 30.4148C6.02461 30.4148 5.09434 30.4297 4.17904 30.4148C2.8232 30.4019 2.39976 29.9079 2.6457 28.5671C3.15253 25.8532 3.7 23.1416 4.2325 20.4299C5.01307 16.4586 5.79365 12.4573 6.57208 8.47321C6.58919 8.29357 6.57636 8.11607 6.58919 7.81454Z" fill="#151515"/>
<path d="M143.821 23.142C144.469 23.1428 145.103 22.9515 145.642 22.5923C146.181 22.233 146.601 21.722 146.849 21.1238C147.098 20.5256 147.163 19.8672 147.037 19.2318C146.912 18.5964 146.6 18.0126 146.142 17.5542C145.685 17.0959 145.101 16.7837 144.466 16.657C143.831 16.5303 143.172 16.5949 142.574 16.8426C141.975 17.0903 141.464 17.5099 141.104 18.0484C140.744 18.5869 140.552 19.2201 140.552 19.8679C140.551 20.2976 140.636 20.7231 140.8 21.1202C140.964 21.5173 141.205 21.8781 141.508 22.1821C141.812 22.4862 142.173 22.7274 142.569 22.8921C142.966 23.0568 143.392 23.1417 143.821 23.142Z" fill="#1364F1"/>
<path d="M154.478 23.9648C153.649 26.1221 152.185 27.9772 150.279 29.2852C148.373 30.5933 146.116 31.2928 143.805 31.2915C142.409 31.291 141.026 31.0306 139.727 30.5237C136.903 29.4328 134.628 27.2668 133.399 24.5006C132.17 21.7345 132.089 18.594 133.172 15.7677C133.199 15.6969 133.24 15.6323 133.293 15.5776C133.346 15.5229 133.409 15.4792 133.478 15.4491C133.548 15.4191 133.623 15.4032 133.699 15.4025C133.775 15.4017 133.85 15.4161 133.92 15.4448L137.192 16.7044C137.264 16.7313 137.33 16.7723 137.385 16.8251C137.441 16.8778 137.485 16.9412 137.516 17.0114C137.546 17.0817 137.562 17.1573 137.563 17.2339C137.564 17.3105 137.549 17.3864 137.52 17.4572C137.041 18.7018 136.942 20.0605 137.236 21.3612C137.53 22.662 138.203 23.8464 139.17 24.7646C140.137 25.6828 141.354 26.2936 142.669 26.5196C143.983 26.7456 145.335 26.5768 146.553 26.0344C147.771 25.492 148.801 24.6005 149.512 23.4727C150.224 22.3448 150.585 21.0312 150.55 19.6982C150.514 18.3652 150.084 17.0725 149.314 15.9838C148.544 14.8952 147.469 14.0593 146.223 13.5821C145.145 13.1591 143.974 13.0313 142.83 13.2121C142.729 13.2273 142.627 13.2159 142.532 13.1791C142.438 13.1423 142.354 13.0815 142.291 13.0026C142.227 12.9237 142.185 12.8295 142.169 12.7293C142.153 12.6291 142.163 12.5265 142.199 12.4316L143.567 8.85591C143.609 8.74222 143.686 8.64494 143.788 8.57836C143.889 8.51177 144.009 8.47938 144.13 8.48594C145.418 8.51868 146.69 8.77334 147.892 9.23871C149.293 9.77056 150.575 10.5739 151.665 11.6027C152.756 12.6314 153.632 13.8654 154.244 15.2336C154.856 16.6018 155.191 18.0775 155.232 19.5758C155.272 21.0741 155.016 22.5657 154.478 23.9648Z" fill="#1364F1"/>
<path d="M162.753 26.9783C162.697 27.1226 162.587 27.2392 162.446 27.3032C162.306 27.3672 162.145 27.3734 162 27.3205L158.416 25.9368C158.344 25.9101 158.278 25.8692 158.222 25.8166C158.167 25.7639 158.122 25.7006 158.091 25.6303C158.061 25.5601 158.044 25.4844 158.044 25.4077C158.043 25.331 158.057 25.2549 158.087 25.184C159.516 21.4605 159.41 17.3219 157.791 13.6766C156.173 10.0312 153.174 7.17699 149.453 5.74031C148.262 5.28044 147.015 4.97847 145.745 4.84212C145.657 4.83371 145.571 4.80488 145.496 4.75788C145.421 4.71089 145.357 4.64703 145.311 4.57134C145.264 4.49564 145.236 4.41019 145.228 4.32172C145.221 4.23325 145.233 4.14418 145.266 4.06154L146.675 0.376817C146.724 0.251427 146.814 0.146463 146.931 0.079213C147.048 0.0119634 147.184 -0.0135601 147.317 0.00684706C148.657 0.236035 149.972 0.594123 151.243 1.07612C161.549 5.03459 166.707 16.664 162.753 26.9783Z" fill="#1364F1"/>
</svg>
