<svg width="602" height="20" viewBox="0 0 602 20" fill="none" xmlns="http://www.w3.org/2000/svg">
<path d="M241.336 16.192C240.707 16.192 240.115 16.032 239.56 15.712C239.016 15.392 238.573 14.928 238.232 14.32C237.901 13.712 237.736 12.9813 237.736 12.128C237.736 11.2533 237.901 10.512 238.232 9.904C238.573 9.296 239.016 8.832 239.56 8.512C240.115 8.192 240.707 8.032 241.336 8.032C241.976 8.032 242.568 8.192 243.112 8.512C243.656 8.832 244.093 9.296 244.424 9.904C244.765 10.512 244.936 11.2533 244.936 12.128C244.936 12.9813 244.765 13.712 244.424 14.32C244.093 14.928 243.656 15.392 243.112 15.712C242.568 16.032 241.976 16.192 241.336 16.192ZM241.336 15.104C242.008 15.104 242.547 14.832 242.952 14.288C243.368 13.7333 243.576 13.0133 243.576 12.128C243.576 11.232 243.368 10.5067 242.952 9.952C242.547 9.39733 242.008 9.12 241.336 9.12C240.675 9.12 240.136 9.39733 239.72 9.952C239.304 10.5067 239.096 11.232 239.096 12.128C239.096 13.0133 239.304 13.7333 239.72 14.288C240.136 14.832 240.675 15.104 241.336 15.104ZM246.984 16V8.224H248.072L248.184 9.632H248.232C248.499 9.14133 248.824 8.752 249.208 8.464C249.592 8.176 250.003 8.032 250.44 8.032C250.749 8.032 251.027 8.08533 251.272 8.192L251.016 9.344C250.888 9.30133 250.771 9.26933 250.664 9.248C250.557 9.22667 250.424 9.216 250.264 9.216C249.933 9.216 249.587 9.34933 249.224 9.616C248.872 9.88267 248.563 10.3467 248.296 11.008V16H246.984ZM255.734 19.28V8.224H256.822L256.934 9.12H256.982C257.334 8.82133 257.718 8.56533 258.134 8.352C258.561 8.13867 259.003 8.032 259.462 8.032C260.465 8.032 261.227 8.39467 261.75 9.12C262.273 9.83467 262.534 10.7947 262.534 12C262.534 12.8747 262.374 13.6267 262.054 14.256C261.745 14.8853 261.334 15.3653 260.822 15.696C260.321 16.0267 259.771 16.192 259.174 16.192C258.811 16.192 258.449 16.112 258.086 15.952C257.734 15.792 257.377 15.5733 257.014 15.296L257.046 16.656V19.28H255.734ZM258.95 15.088C259.59 15.088 260.118 14.816 260.534 14.272C260.961 13.7173 261.174 12.96 261.174 12C261.174 11.1467 261.014 10.4587 260.694 9.936C260.385 9.40267 259.862 9.136 259.126 9.136C258.795 9.136 258.459 9.22667 258.118 9.408C257.787 9.58933 257.43 9.85067 257.046 10.192V14.272C257.398 14.5707 257.739 14.784 258.07 14.912C258.401 15.0293 258.694 15.088 258.95 15.088ZM266.182 16.192C265.531 16.192 264.987 16 264.55 15.616C264.123 15.2213 263.91 14.6773 263.91 13.984C263.91 13.1307 264.289 12.48 265.046 12.032C265.814 11.5733 267.025 11.2533 268.678 11.072C268.678 10.7413 268.63 10.4267 268.534 10.128C268.449 9.82933 268.289 9.58933 268.054 9.408C267.83 9.216 267.505 9.12 267.078 9.12C266.63 9.12 266.209 9.20533 265.814 9.376C265.419 9.54667 265.067 9.73867 264.758 9.952L264.246 9.04C264.609 8.80533 265.051 8.58133 265.574 8.368C266.107 8.144 266.683 8.032 267.302 8.032C268.251 8.032 268.939 8.32533 269.366 8.912C269.793 9.488 270.006 10.2613 270.006 11.232V16H268.918L268.806 15.072H268.758C268.395 15.3707 267.995 15.632 267.558 15.856C267.131 16.08 266.673 16.192 266.182 16.192ZM266.566 15.136C266.939 15.136 267.291 15.0453 267.622 14.864C267.953 14.6827 268.305 14.4267 268.678 14.096V11.936C267.387 12.096 266.481 12.336 265.958 12.656C265.446 12.976 265.19 13.3867 265.19 13.888C265.19 14.3253 265.323 14.6453 265.59 14.848C265.857 15.04 266.182 15.136 266.566 15.136ZM272.581 19.344C272.41 19.344 272.245 19.328 272.085 19.296C271.935 19.264 271.797 19.2267 271.669 19.184L271.925 18.144C272.01 18.1653 272.106 18.1867 272.213 18.208C272.319 18.24 272.421 18.256 272.517 18.256C272.954 18.256 273.317 18.096 273.605 17.776C273.893 17.4667 274.117 17.072 274.277 16.592L274.453 16.016L271.333 8.224H272.693L274.277 12.528C274.394 12.8587 274.517 13.216 274.645 13.6C274.783 13.984 274.911 14.3573 275.029 14.72H275.093C275.21 14.368 275.322 14 275.429 13.616C275.535 13.232 275.642 12.8693 275.749 12.528L277.141 8.224H278.421L275.493 16.64C275.311 17.152 275.093 17.6107 274.837 18.016C274.591 18.4213 274.282 18.7413 273.909 18.976C273.546 19.2213 273.103 19.344 272.581 19.344ZM284.917 16.192C284.266 16.192 283.722 16 283.285 15.616C282.858 15.2213 282.645 14.6773 282.645 13.984C282.645 13.1307 283.023 12.48 283.781 12.032C284.549 11.5733 285.759 11.2533 287.413 11.072C287.413 10.7413 287.365 10.4267 287.269 10.128C287.183 9.82933 287.023 9.58933 286.789 9.408C286.565 9.216 286.239 9.12 285.812 9.12C285.365 9.12 284.943 9.20533 284.549 9.376C284.154 9.54667 283.802 9.73867 283.493 9.952L282.981 9.04C283.343 8.80533 283.786 8.58133 284.309 8.368C284.842 8.144 285.418 8.032 286.036 8.032C286.986 8.032 287.674 8.32533 288.101 8.912C288.527 9.488 288.741 10.2613 288.741 11.232V16H287.653L287.541 15.072H287.493C287.13 15.3707 286.73 15.632 286.293 15.856C285.866 16.08 285.407 16.192 284.917 16.192ZM285.301 15.136C285.674 15.136 286.026 15.0453 286.357 14.864C286.687 14.6827 287.039 14.4267 287.413 14.096V11.936C286.122 12.096 285.215 12.336 284.693 12.656C284.181 12.976 283.924 13.3867 283.924 13.888C283.924 14.3253 284.058 14.6453 284.325 14.848C284.591 15.04 284.917 15.136 285.301 15.136ZM291.187 16V8.224H292.275L292.387 9.344H292.435C292.808 8.97067 293.203 8.66133 293.619 8.416C294.035 8.16 294.51 8.032 295.043 8.032C295.864 8.032 296.462 8.29333 296.835 8.816C297.219 9.328 297.411 10.08 297.411 11.072V16H296.099V11.248C296.099 10.5227 295.982 9.99467 295.747 9.664C295.512 9.33333 295.139 9.168 294.627 9.168C294.232 9.168 293.875 9.26933 293.555 9.472C293.246 9.67467 292.894 9.97333 292.499 10.368V16H291.187ZM302.961 16.192C302.332 16.192 301.74 16.032 301.185 15.712C300.641 15.392 300.198 14.928 299.857 14.32C299.526 13.712 299.361 12.9813 299.361 12.128C299.361 11.2533 299.526 10.512 299.857 9.904C300.198 9.296 300.641 8.832 301.185 8.512C301.74 8.192 302.332 8.032 302.961 8.032C303.601 8.032 304.193 8.192 304.737 8.512C305.281 8.832 305.718 9.296 306.049 9.904C306.39 10.512 306.561 11.2533 306.561 12.128C306.561 12.9813 306.39 13.712 306.049 14.32C305.718 14.928 305.281 15.392 304.737 15.712C304.193 16.032 303.601 16.192 302.961 16.192ZM302.961 15.104C303.633 15.104 304.172 14.832 304.577 14.288C304.993 13.7333 305.201 13.0133 305.201 12.128C305.201 11.232 304.993 10.5067 304.577 9.952C304.172 9.39733 303.633 9.12 302.961 9.12C302.3 9.12 301.761 9.39733 301.345 9.952C300.929 10.5067 300.721 11.232 300.721 12.128C300.721 13.0133 300.929 13.7333 301.345 14.288C301.761 14.832 302.3 15.104 302.961 15.104ZM310.791 16.192C309.959 16.192 309.378 15.952 309.047 15.472C308.727 14.992 308.567 14.368 308.567 13.6V9.296H307.415V8.304L308.631 8.224L308.791 6.048H309.895V8.224H311.991V9.296H309.895V13.616C309.895 14.096 309.981 14.4693 310.151 14.736C310.333 14.992 310.647 15.12 311.095 15.12C311.234 15.12 311.383 15.0987 311.543 15.056C311.703 15.0027 311.847 14.9547 311.975 14.912L312.231 15.904C312.018 15.9787 311.783 16.0427 311.527 16.096C311.282 16.16 311.037 16.192 310.791 16.192ZM313.75 16V4.608H315.062V7.712L315.014 9.312C315.387 8.96 315.776 8.66133 316.182 8.416C316.598 8.16 317.072 8.032 317.606 8.032C318.427 8.032 319.024 8.29333 319.398 8.816C319.782 9.328 319.974 10.08 319.974 11.072V16H318.662V11.248C318.662 10.5227 318.544 9.99467 318.31 9.664C318.075 9.33333 317.702 9.168 317.19 9.168C316.795 9.168 316.438 9.26933 316.118 9.472C315.808 9.67467 315.456 9.97333 315.062 10.368V16H313.75ZM325.605 16.192C324.911 16.192 324.282 16.032 323.717 15.712C323.151 15.3813 322.703 14.912 322.373 14.304C322.042 13.696 321.877 12.9707 321.877 12.128C321.877 11.2747 322.042 10.544 322.373 9.936C322.714 9.328 323.151 8.85867 323.685 8.528C324.218 8.19733 324.778 8.032 325.365 8.032C326.357 8.032 327.119 8.36267 327.653 9.024C328.197 9.68533 328.469 10.5707 328.469 11.68C328.469 11.8187 328.463 11.9573 328.453 12.096C328.453 12.224 328.442 12.336 328.421 12.432H323.173C323.226 13.2533 323.482 13.9093 323.941 14.4C324.41 14.8907 325.018 15.136 325.765 15.136C326.138 15.136 326.479 15.0827 326.789 14.976C327.109 14.8587 327.413 14.7093 327.701 14.528L328.165 15.392C327.834 15.6053 327.455 15.792 327.029 15.952C326.613 16.112 326.138 16.192 325.605 16.192ZM323.157 11.488H327.317C327.317 10.6987 327.146 10.1013 326.805 9.696C326.474 9.28 326.005 9.072 325.397 9.072C324.853 9.072 324.362 9.28533 323.925 9.712C323.498 10.128 323.242 10.72 323.157 11.488ZM330.39 16V8.224H331.478L331.59 9.632H331.638C331.905 9.14133 332.23 8.752 332.614 8.464C332.998 8.176 333.409 8.032 333.846 8.032C334.155 8.032 334.433 8.08533 334.678 8.192L334.422 9.344C334.294 9.30133 334.177 9.26933 334.07 9.248C333.963 9.22667 333.83 9.216 333.67 9.216C333.339 9.216 332.993 9.34933 332.63 9.616C332.278 9.88267 331.969 10.3467 331.702 11.008V16H330.39ZM340.372 16L338.212 8.224H339.556L340.708 12.72C340.793 13.0827 340.873 13.4453 340.948 13.808C341.023 14.16 341.097 14.5173 341.172 14.88H341.236C341.321 14.5173 341.407 14.16 341.492 13.808C341.577 13.4453 341.668 13.0827 341.764 12.72L342.964 8.224H344.244L345.46 12.72C345.556 13.0827 345.647 13.4453 345.732 13.808C345.828 14.16 345.919 14.5173 346.004 14.88H346.068C346.153 14.5173 346.233 14.16 346.308 13.808C346.393 13.4453 346.473 13.0827 346.548 12.72L347.684 8.224H348.932L346.852 16H345.252L344.132 11.824C344.036 11.4507 343.945 11.0827 343.86 10.72C343.785 10.3573 343.7 9.97867 343.604 9.584H343.54C343.455 9.97867 343.369 10.3627 343.284 10.736C343.199 11.0987 343.103 11.4667 342.996 11.84L341.908 16H340.372ZM352.26 16.192C351.61 16.192 351.066 16 350.628 15.616C350.202 15.2213 349.988 14.6773 349.988 13.984C349.988 13.1307 350.367 12.48 351.124 12.032C351.892 11.5733 353.103 11.2533 354.756 11.072C354.756 10.7413 354.708 10.4267 354.612 10.128C354.527 9.82933 354.367 9.58933 354.132 9.408C353.908 9.216 353.583 9.12 353.156 9.12C352.708 9.12 352.287 9.20533 351.892 9.376C351.498 9.54667 351.146 9.73867 350.836 9.952L350.324 9.04C350.687 8.80533 351.13 8.58133 351.652 8.368C352.186 8.144 352.762 8.032 353.38 8.032C354.33 8.032 355.018 8.32533 355.444 8.912C355.871 9.488 356.084 10.2613 356.084 11.232V16H354.996L354.884 15.072H354.836C354.474 15.3707 354.074 15.632 353.636 15.856C353.21 16.08 352.751 16.192 352.26 16.192ZM352.644 15.136C353.018 15.136 353.37 15.0453 353.7 14.864C354.031 14.6827 354.383 14.4267 354.756 14.096V11.936C353.466 12.096 352.559 12.336 352.036 12.656C351.524 12.976 351.268 13.3867 351.268 13.888C351.268 14.3253 351.402 14.6453 351.668 14.848C351.935 15.04 352.26 15.136 352.644 15.136ZM358.659 19.344C358.488 19.344 358.323 19.328 358.163 19.296C358.013 19.264 357.875 19.2267 357.747 19.184L358.003 18.144C358.088 18.1653 358.184 18.1867 358.291 18.208C358.397 18.24 358.499 18.256 358.595 18.256C359.032 18.256 359.395 18.096 359.683 17.776C359.971 17.4667 360.195 17.072 360.355 16.592L360.531 16.016L357.411 8.224H358.771L360.355 12.528C360.472 12.8587 360.595 13.216 360.723 13.6C360.861 13.984 360.989 14.3573 361.107 14.72H361.171C361.288 14.368 361.4 14 361.507 13.616C361.613 13.232 361.72 12.8693 361.827 12.528L363.219 8.224H364.499L361.571 16.64C361.389 17.152 361.171 17.6107 360.915 18.016C360.669 18.4213 360.36 18.7413 359.987 18.976C359.624 19.2213 359.181 19.344 358.659 19.344Z" fill="black" fill-opacity="0.75"/>
<path d="M385 12L601 12" stroke="#CECECE" stroke-linecap="round"/>
<path d="M1 12H217" stroke="#CECECE" stroke-linecap="round"/>
</svg>
