<svg width="46" height="46" viewBox="0 0 46 46" fill="none" xmlns="http://www.w3.org/2000/svg">
<rect x="0.5" y="0.5" width="45" height="45" rx="3.5" fill="white" stroke="#D9D9D9"/>
<path d="M23 33C28.5228 33 33 28.5228 33 23C33 17.4772 28.5228 13 23 13C17.4772 13 13 17.4772 13 23C13 28.5228 17.4772 33 23 33Z" stroke="#021536" stroke-width="1.5" stroke-linecap="round" stroke-linejoin="round"/>
<path d="M20.0898 19.9996C20.3249 19.3313 20.789 18.7677 21.3998 18.4087C22.0106 18.0498 22.7287 17.9185 23.427 18.0383C24.1253 18.1581 24.7587 18.5211 25.2149 19.0631C25.6712 19.6051 25.9209 20.2911 25.9198 20.9996C25.9198 22.9996 22.9198 23.9996 22.9198 23.9996" stroke="#021536" stroke-width="1.5" stroke-linecap="round" stroke-linejoin="round"/>
<path d="M23 28H23.01" stroke="#021536" stroke-width="1.5" stroke-linecap="round" stroke-linejoin="round"/>
</svg>
