<svg width="46" height="46" viewBox="0 0 46 46" fill="none" xmlns="http://www.w3.org/2000/svg">
<rect x="0.5" y="0.5" width="45" height="45" rx="3.5" fill="white" stroke="#D9D9D9"/>
<path d="M29 19C30.6569 19 32 17.6569 32 16C32 14.3431 30.6569 13 29 13C27.3431 13 26 14.3431 26 16C26 17.6569 27.3431 19 29 19Z" stroke="#021536" stroke-width="1.5" stroke-linecap="round" stroke-linejoin="round"/>
<path d="M17 26C18.6569 26 20 24.6569 20 23C20 21.3431 18.6569 20 17 20C15.3431 20 14 21.3431 14 23C14 24.6569 15.3431 26 17 26Z" stroke="#021536" stroke-width="1.5" stroke-linecap="round" stroke-linejoin="round"/>
<path d="M29 33C30.6569 33 32 31.6569 32 30C32 28.3431 30.6569 27 29 27C27.3431 27 26 28.3431 26 30C26 31.6569 27.3431 33 29 33Z" stroke="#021536" stroke-width="1.5" stroke-linecap="round" stroke-linejoin="round"/>
<path d="M19.5901 24.51L26.4201 28.49" stroke="#021536" stroke-width="1.5" stroke-linecap="round" stroke-linejoin="round"/>
<path d="M26.4101 17.51L19.5901 21.49" stroke="#021536" stroke-width="1.5" stroke-linecap="round" stroke-linejoin="round"/>
</svg>
