<svg width="40" height="21" viewBox="0 0 40 21" fill="none" xmlns="http://www.w3.org/2000/svg">
<rect width="40" height="21" rx="10.5" fill="#FFCA00" fill-opacity="0.1"/>
<path d="M8.312 13.661L9.157 12.517C10.327 13.479 11.172 13.843 12.212 13.843C13.421 13.843 14.253 13.232 14.253 12.4C14.253 11.659 13.811 11.321 12.602 11.1L10.925 10.814C9.352 10.528 8.585 9.748 8.585 8.5C8.585 6.862 9.898 5.77 11.939 5.77C13.304 5.77 14.552 6.186 15.592 6.953L14.799 8.123C13.889 7.421 12.901 7.07 11.887 7.07C10.795 7.07 10.08 7.616 10.08 8.357C10.08 9.007 10.483 9.345 11.484 9.501L13.096 9.787C14.929 10.099 15.787 10.905 15.787 12.283C15.787 13.947 14.305 15.13 12.134 15.13C10.704 15.13 9.469 14.636 8.312 13.661ZM17.0153 11.75C17.0153 9.839 18.4323 8.383 20.2913 8.383C22.1633 8.383 23.5673 9.839 23.5673 11.75C23.5673 13.674 22.1503 15.13 20.2913 15.13C18.4323 15.13 17.0153 13.661 17.0153 11.75ZM20.2913 13.856C21.3573 13.856 22.1113 12.972 22.1113 11.763C22.1113 10.528 21.3443 9.644 20.2913 9.644C19.2253 9.644 18.4713 10.528 18.4713 11.763C18.4713 12.985 19.2253 13.856 20.2913 13.856ZM25.0838 15V8.487H26.5528V9.553C27.0468 8.786 27.7488 8.383 28.6198 8.383C29.9458 8.383 30.8688 9.345 30.8688 10.71V15H29.3998V11.126C29.3998 10.177 28.8408 9.566 27.9698 9.566C27.3848 9.566 26.9038 9.839 26.5528 10.346V15H25.0838Z" fill="#FFCA00"/>
</svg>
