<svg width="16" height="16" viewBox="0 0 16 16" fill="none" xmlns="http://www.w3.org/2000/svg">
<path d="M5.41921 6.26027L5.41924 6.26023L7.78594 2.70868C7.78598 2.70861 7.78603 2.70854 7.78607 2.70848C7.80949 2.67351 7.84116 2.64484 7.87829 2.625C7.91548 2.60512 7.95701 2.59473 7.99918 2.59473C8.04135 2.59473 8.08287 2.60512 8.12007 2.625C8.1572 2.64484 8.18887 2.67352 8.21229 2.70849C8.21234 2.70855 8.21238 2.70861 8.21242 2.70868L10.5791 6.25827C10.5792 6.25828 10.5792 6.25829 10.5792 6.25829C10.6587 6.37757 10.7617 6.47937 10.8819 6.55748L11.0862 6.24303L10.8819 6.55748C11.0021 6.63559 11.137 6.68835 11.2783 6.71255C11.4196 6.73674 11.5644 6.73185 11.7037 6.69818C11.843 6.66452 11.974 6.6028 12.0887 6.51679C12.0887 6.51677 12.0887 6.51675 12.0887 6.51673L14.9314 4.38496C14.9315 4.38491 14.9316 4.38487 14.9316 4.38483C14.9506 4.37063 14.9735 4.3624 14.9972 4.36117C15.021 4.35995 15.0446 4.36584 15.065 4.37808C15.0855 4.39033 15.1018 4.40838 15.1119 4.42994C15.1221 4.45144 15.1256 4.47546 15.122 4.49894C15.122 4.49901 15.122 4.49907 15.122 4.49914L14.2585 10.1118L1.73989 10.1137L0.876377 4.50114C0.876371 4.5011 0.876365 4.50106 0.876359 4.50102C0.87279 4.47751 0.876289 4.45346 0.886413 4.43194C0.896554 4.41038 0.912883 4.39233 0.933318 4.38008C0.953755 4.36784 0.977374 4.36195 1.00117 4.36317C1.02492 4.3644 1.04778 4.37265 1.06684 4.38689C1.06687 4.38692 1.06689 4.38694 1.06692 4.38696L3.90961 6.51873C3.90962 6.51873 3.90962 6.51873 3.90963 6.51874C3.90965 6.51876 3.90967 6.51877 3.90969 6.51879C4.02435 6.6048 4.15533 6.66652 4.29465 6.70018C4.434 6.73385 4.57876 6.73874 4.72006 6.71455C4.86137 6.69035 4.99625 6.63759 5.11646 6.55948C5.23668 6.48137 5.33969 6.37956 5.41921 6.26027ZM1.79318 11.9608H14.2062V13.0933C14.2062 13.1342 14.1981 13.1747 14.1825 13.2125C14.1668 13.2503 14.1439 13.2846 14.1149 13.3135C14.086 13.3425 14.0517 13.3654 14.0139 13.3811C13.9761 13.3967 13.9356 13.4048 13.8947 13.4048H2.10468C2.06377 13.4048 2.02326 13.3967 1.98547 13.3811C1.94768 13.3654 1.91334 13.3425 1.88441 13.3135C1.826 13.2551 1.79318 13.1759 1.79318 13.0933V11.9608Z" stroke="white" stroke-width="0.75"/>
</svg>
