<svg width="80" height="80" viewBox="0 0 80 80" fill="none" xmlns="http://www.w3.org/2000/svg">
<g clip-path="url(#clip0_885_20630)">
<path d="M40 0C17.9094 0 0 17.9031 0 40C0 62.0969 17.9094 80 40 80C62.0906 80 80 62.0859 80 40C80 17.9141 62.0906 0 40 0Z" fill="#2AD352"/>
<path d="M3.7147e-05 40.0001C-0.00899242 46.6117 1.62827 53.1216 4.7641 58.9422C8.75922 60.1152 12.9019 60.7093 17.0657 60.7063C41.1125 60.7063 60.6063 41.2126 60.6063 17.1657C60.6099 12.9359 59.9972 8.72817 58.7875 4.67506C53.005 1.59493 46.5518 -0.0108552 40 5.52282e-05C17.9094 5.52282e-05 3.7147e-05 17.9032 3.7147e-05 40.0001Z" fill="#74DA7F"/>
<path d="M62.8128 33.3716L38.7706 58.62C38.1154 59.3074 37.3282 59.8554 36.4561 60.2313C35.5841 60.6071 34.6452 60.8031 33.6956 60.8075H33.6643C32.72 60.8078 31.7853 60.6183 30.9156 60.2503C30.046 59.8823 29.2591 59.3433 28.6018 58.6653L15.844 45.5247C15.1848 44.863 14.6636 44.077 14.3107 43.2123C13.9577 42.3476 13.78 41.4213 13.7878 40.4874C13.7957 39.5534 13.989 38.6303 14.3565 37.7717C14.724 36.913 15.2583 36.1359 15.9286 35.4854C16.5988 34.835 17.3916 34.3241 18.2608 33.9824C19.1301 33.6408 20.0586 33.4752 20.9923 33.4953C21.9261 33.5154 22.8466 33.7207 23.7004 34.0994C24.5542 34.4781 25.3242 35.0226 25.9659 35.7013L33.6143 43.5794L52.5971 23.645C53.233 22.9631 53.9978 22.4141 54.8473 22.0297C55.6967 21.6453 56.6139 21.4331 57.5459 21.4055C58.4778 21.3778 59.406 21.5351 60.2768 21.8685C61.1475 22.2018 61.9435 22.7045 62.6188 23.3474C63.294 23.9903 63.8351 24.7607 64.2107 25.6141C64.5863 26.4675 64.789 27.3868 64.807 28.319C64.8251 29.2512 64.6581 30.1777 64.3158 31.045C63.9735 31.9122 63.4626 32.703 62.8128 33.3716Z" fill="white"/>
</g>
<defs>
<clipPath id="clip0_885_20630">
<rect width="80" height="80" fill="white"/>
</clipPath>
</defs>
</svg>
