<svg width="16" height="16" viewBox="0 0 16 16" fill="none" xmlns="http://www.w3.org/2000/svg">
<g clip-path="url(#clip0_632_865)">
<path d="M13.7823 6.61386H13.7427V5.64356C13.7427 2.52671 11.216 0 8.09909 0C4.9822 0 2.45553 2.52671 2.45553 5.64356V6.61386H2.21792C1.34662 6.61386 0.673366 7.38612 0.673366 8.27724V10.7525C0.651421 11.6162 1.33381 12.3341 2.19749 12.356C2.20431 12.3562 2.2111 12.3563 2.21792 12.3564H3.68326C3.89081 12.3467 4.05117 12.1705 4.04139 11.9629C4.04105 11.9555 4.04048 11.948 4.03969 11.9406V7.08908C4.03969 6.85147 3.90108 6.61382 3.68326 6.61382H3.24761V5.64353C3.24761 2.96414 5.41971 0.792042 8.09909 0.792042C10.7785 0.792042 12.9506 2.96414 12.9506 5.64353V6.61382H12.5149C12.2971 6.61382 12.1585 6.85143 12.1585 7.08908V11.9406C12.1364 12.1472 12.286 12.3326 12.4926 12.3547C12.5 12.3555 12.5075 12.356 12.5149 12.3564H12.9704L12.9308 12.4158C12.6377 12.8052 12.2577 13.1208 11.8211 13.3374C11.3845 13.554 10.9033 13.6656 10.4159 13.6633C10.1996 12.6024 9.16414 11.9178 8.1033 12.1342C7.19611 12.3192 6.54203 13.1137 6.53472 14.0395C6.54556 15.1254 7.42898 16 8.51492 15.9999C9.05249 15.9912 9.56489 15.7706 9.94065 15.3861C10.1942 15.1264 10.3603 14.7941 10.4159 14.4355C11.0263 14.4379 11.6287 14.2976 12.1753 14.0261C12.7219 13.7545 13.1976 13.359 13.5644 12.8712L13.9407 12.3167C14.7921 12.2573 15.3268 11.7227 15.3268 10.9504V8.47516C15.3268 7.62376 14.6932 6.61386 13.7823 6.61386ZM3.24761 11.5643H2.21792C1.79152 11.554 1.45427 11.1999 1.46465 10.7735C1.46484 10.7665 1.46511 10.7595 1.46545 10.7524V8.2772C1.46545 7.82176 1.78227 7.4059 2.21792 7.4059H3.24761V11.5643ZM9.36643 14.8317C9.25786 14.9494 9.12626 15.0435 8.97978 15.1083C8.83331 15.173 8.67509 15.2069 8.51495 15.2079C7.87069 15.1977 7.34787 14.6836 7.32683 14.0396C7.32657 13.3943 7.84943 12.8711 8.49468 12.8708C9.13992 12.8705 9.6632 13.3934 9.66347 14.0386V14.0396C9.67162 14.185 9.64942 14.3305 9.59828 14.4669C9.54714 14.6032 9.46818 14.7275 9.36643 14.8317ZM14.5347 10.9505C14.5347 11.4851 14.0199 11.5643 13.7823 11.5643H12.9506V7.40594H13.7823C14.2179 7.40594 14.5347 8.0198 14.5347 8.47524V10.9505Z" fill="white"/>
</g>
<defs>
<clipPath id="clip0_632_865">
<rect width="16" height="16" fill="white"/>
</clipPath>
</defs>
</svg>
