<svg width="16" height="16" viewBox="0 0 16 16" fill="none" xmlns="http://www.w3.org/2000/svg">
<g clip-path="url(#clip0_632_841)">
<path d="M7.33334 8.21968V1.00034C7.33334 0.816336 7.184 0.666992 7 0.666992C3.14 0.666992 0 4.10634 0 8.33365C0 12.561 3.43934 16.0003 7.66666 16.0003C9.558 16.0003 10.5813 15.6577 11.8787 14.591C12.018 14.4763 12.0407 14.2716 11.93 14.129L7.33334 8.21968ZM7.66666 15.3337C3.80666 15.3337 0.666656 12.1937 0.666656 8.33368C0.666656 4.59768 3.32866 1.53568 6.66666 1.34302V8.33368C6.66666 8.40768 6.69131 8.47968 6.73731 8.53834L11.2013 14.2777C10.1487 15.0817 9.27066 15.3337 7.66666 15.3337Z" fill="white"/>
<path d="M8.33334 8H15.6667C15.8507 8 16 7.85066 16 7.66666C16 3.43934 12.5607 0 8.33334 0C8.14934 0 8 0.149344 8 0.333344V7.66669C8 7.85066 8.14934 8 8.33334 8ZM8.66666 0.674656C12.262 0.844 15.156 3.738 15.3253 7.33331H8.66666V0.674656ZM15.6667 8.66666H9C8.93698 8.66675 8.87526 8.68462 8.82195 8.71824C8.76864 8.75185 8.7259 8.79983 8.69866 8.85666C8.67161 8.9134 8.6612 8.97664 8.66863 9.03906C8.67607 9.10148 8.70104 9.16051 8.74066 9.20931L13.074 14.574C13.132 14.6466 13.2173 14.6906 13.31 14.6973C13.318 14.698 13.3253 14.698 13.3333 14.698C13.4173 14.698 13.4987 14.666 13.5607 14.6086C15.1107 13.1627 16 11.1187 16 9C16 8.816 15.8507 8.66666 15.6667 8.66666ZM13.362 13.8693L9.698 9.33334H15.3253C15.2433 11.028 14.542 12.6487 13.362 13.8693Z" fill="white"/>
</g>
<defs>
<clipPath id="clip0_632_841">
<rect width="16" height="16" fill="white"/>
</clipPath>
</defs>
</svg>
