<svg width="24" height="24" viewBox="0 0 24 24" fill="none" xmlns="http://www.w3.org/2000/svg">
<path d="M24 18.8573C24 19.6408 23.3648 20.276 22.5813 20.276H1.41867C0.635156 20.2761 0 19.6408 0 18.8573V5.14333C0 4.35977 0.635156 3.72461 1.41867 3.72461H22.5813C23.3649 3.72461 24 4.35981 24 5.14333V18.8573Z" fill="white"/>
<path d="M5.32678 12.0953L4.76325 9.39193C4.66692 9.01913 4.38661 8.90823 4.03636 8.89355H1.4527L1.42969 9.01707C3.44198 9.5049 4.77347 10.6817 5.32678 12.0953Z" fill="#F79F1A"/>
<path d="M11.3135 8.94841H9.64411L8.60151 15.0669H10.2681L11.3135 8.94841ZM6.3443 15.0607L8.96977 8.95258H7.203L5.56973 13.1258L5.39541 12.4957C5.07525 11.7377 4.16025 10.6466 3.08606 9.95983L4.57903 15.0628L6.3443 15.0607ZM16.0749 13.0668C16.0811 12.3721 15.6351 11.8423 14.6739 11.4047C14.0898 11.122 13.7338 10.9335 13.7381 10.6467C13.7381 10.3933 14.0396 10.1211 14.6928 10.1211C15.2394 10.1127 15.633 10.232 15.9408 10.3556L16.0917 10.4247L16.3179 9.09925C15.987 8.97564 15.4697 8.84373 14.8228 8.84373C13.1748 8.84373 12.0148 9.673 12.0043 10.8624C11.9938 11.7419 12.8336 12.2319 13.4659 12.525C14.115 12.8238 14.3328 13.015 14.3286 13.283C14.3244 13.6928 13.8113 13.8797 13.3319 13.8797C12.6639 13.8797 12.31 13.7876 11.7611 13.5589L11.5478 13.461L11.3136 14.832C11.7028 15.0021 12.423 15.1508 13.1707 15.157C14.9232 15.157 16.0623 14.3383 16.0749 13.0668ZM18.0578 14.1498C18.2483 14.1498 19.9507 14.1519 20.1937 14.1519C20.244 14.365 20.3968 15.069 20.3968 15.069H21.9442L20.5936 8.95473H19.3058C18.9059 8.95473 18.6086 9.06363 18.4327 9.46141L15.9555 15.069H17.7083C17.7082 15.069 17.9929 14.3153 18.0578 14.1498ZM19.201 11.1868C19.1928 11.2036 19.3393 10.833 19.4231 10.6026L19.5361 11.1303C19.5361 11.1303 19.8545 12.5919 19.9214 12.8976H18.5373C18.6755 12.5459 19.201 11.1868 19.201 11.1868ZM22.5813 3.72461H1.41867C0.635156 3.72461 0 4.35977 0 5.14333V6.61577H24V5.14333C24 4.35977 23.3649 3.72461 22.5813 3.72461Z" fill="#059BBF"/>
<path d="M22.5813 20.2759H1.41867C0.635156 20.2759 0 19.6407 0 18.8572V17.3848H24V18.8572C24 19.6407 23.3649 20.2759 22.5813 20.2759Z" fill="#F79F1A"/>
<path opacity="0.15" d="M1.00861 18.8573V5.14333C1.00861 4.35977 1.64381 3.72461 2.42738 3.72461H1.41862C0.635156 3.72461 0 4.35977 0 5.14333V18.8573C0 19.6409 0.635156 20.2761 1.41867 20.2761H2.42742C1.64386 20.2761 1.00861 19.6408 1.00861 18.8573Z" fill="#202121"/>
</svg>
