<svg width="39" height="21" viewBox="0 0 39 21" fill="none" xmlns="http://www.w3.org/2000/svg">
<rect width="39" height="21" rx="10.5" fill="#FFCA00" fill-opacity="0.1"/>
<path d="M11.679 15V11.399L8.078 5.9H9.885L12.511 10.06L15.163 5.9H16.866L13.239 11.438V15H11.679ZM16.0378 11.75C16.0378 9.839 17.4548 8.383 19.3138 8.383C21.1858 8.383 22.5898 9.839 22.5898 11.75C22.5898 13.674 21.1728 15.13 19.3138 15.13C17.4548 15.13 16.0378 13.661 16.0378 11.75ZM19.3138 13.856C20.3798 13.856 21.1338 12.972 21.1338 11.763C21.1338 10.528 20.3668 9.644 19.3138 9.644C18.2478 9.644 17.4938 10.528 17.4938 11.763C17.4938 12.985 18.2478 13.856 19.3138 13.856ZM25.5363 8.487V12.361C25.5363 13.31 26.0953 13.921 26.9663 13.921C27.5643 13.921 28.0453 13.648 28.3963 13.115V8.487H29.8653V15H28.3963V13.921C27.9023 14.688 27.2003 15.104 26.3163 15.104C24.9903 15.104 24.0673 14.155 24.0673 12.777V8.487H25.5363Z" fill="#FFCA00"/>
</svg>
