<svg width="32" height="22" viewBox="0 0 32 22" fill="none" xmlns="http://www.w3.org/2000/svg">
<path d="M12.5791 5.23486H19.4242V16.7643H12.5791V5.23486Z" fill="#FF5F00"/>
<path d="M13.2844 11.0003C13.2836 9.89014 13.5276 8.79431 13.9981 7.79575C14.4685 6.79719 15.1531 5.92208 15.9999 5.23663C14.9511 4.38659 13.6915 3.85799 12.3651 3.71126C11.0387 3.56453 9.69904 3.80559 8.49922 4.40689C7.29939 5.00818 6.28781 5.94545 5.5801 7.11158C4.87238 8.2777 4.49707 9.62564 4.49707 11.0013C4.49707 12.377 4.87238 13.7249 5.5801 14.8911C6.28781 16.0572 7.29939 16.9945 8.49922 17.5958C9.69904 18.1971 11.0387 18.4381 12.3651 18.2914C13.6915 18.1447 14.9511 17.6161 15.9999 16.766C15.1528 16.0804 14.4681 15.2049 13.9976 14.206C13.5272 13.207 13.2833 12.1108 13.2844 11.0003V11.0003Z" fill="#EB001B"/>
<path d="M26.8237 15.5439V15.3077H26.9225V15.2588H26.6875V15.3077H26.7803V15.5439L26.8237 15.5439ZM27.28 15.5439V15.2588H27.2089L27.1259 15.4625L27.043 15.2588H26.9719V15.5439H27.0232V15.328L27.1003 15.5134H27.1536L27.2306 15.328V15.5439H27.28Z" fill="#F79E1B"/>
<path d="M27.503 11.0003C27.5029 12.3761 27.1275 13.7241 26.4197 14.8903C25.7118 16.0564 24.7001 16.9937 23.5001 17.5949C22.3001 18.1961 20.9604 18.437 19.6339 18.2901C18.3074 18.1431 17.0478 17.6143 15.999 16.764C16.8455 16.0779 17.5299 15.2025 18.0005 14.2039C18.4711 13.2053 18.7156 12.1095 18.7156 10.9993C18.7156 9.88898 18.4711 8.7932 18.0005 7.79459C17.5299 6.79598 16.8455 5.92062 15.999 5.23457C17.0478 4.38425 18.3074 3.85539 19.6339 3.70845C20.9604 3.5615 22.3002 3.80241 23.5001 4.40362C24.7001 5.00483 25.7119 5.94209 26.4197 7.10827C27.1275 8.27444 27.5029 9.62247 27.503 10.9983V11.0003Z" fill="#F79E1B"/>
</svg>
