<svg width="180" height="180" viewBox="0 0 180 180" fill="none" xmlns="http://www.w3.org/2000/svg">
<path d="M90 10C100.506 10 110.909 12.0693 120.615 16.0896C130.321 20.11 139.14 26.0028 146.569 33.4315C153.997 40.8602 159.89 49.6793 163.91 59.3853C167.931 69.0914 170 79.4943 170 90C170 100.506 167.931 110.909 163.91 120.615C159.89 130.321 153.997 139.14 146.569 146.569C139.14 153.997 130.321 159.89 120.615 163.91C110.909 167.931 100.506 170 90 170C79.4942 170 69.0913 167.931 59.3853 163.91C49.6793 159.89 40.8601 153.997 33.4314 146.569C26.0027 139.14 20.11 130.321 16.0896 120.615C12.0693 110.909 9.99999 100.506 10 90C10 79.4942 12.0693 69.0913 16.0897 59.3853C20.11 49.6792 26.0028 40.8601 33.4315 33.4314C40.8602 26.0027 49.6793 20.11 59.3854 16.0896C69.0914 12.0692 79.4943 9.99999 90.0001 10L90 10Z" stroke="#1364F1" stroke-width="20"/>
<path d="M90 10C103.613 10 117.002 13.474 128.898 20.0931C140.793 26.7122 150.803 36.2574 157.98 47.8255C165.157 59.3935 169.263 72.6016 169.91 86.1996C170.556 99.7977 167.722 113.336 161.676 125.533" stroke="#FFCA00" stroke-width="20"/>
</svg>
