<svg width="16" height="16" viewBox="0 0 16 16" fill="none" xmlns="http://www.w3.org/2000/svg">
<g clip-path="url(#clip0_632_847)">
<path d="M5.97521 2.40065L5.97521 2.40024C5.97517 2.06152 6.0601 1.72821 6.22221 1.43082C6.38433 1.13342 6.61845 0.881436 6.90315 0.697933C7.18784 0.514431 7.51402 0.405271 7.85182 0.380447C8.18963 0.355622 8.52826 0.415927 8.83672 0.555839C9.14519 0.695752 9.41363 0.910803 9.61748 1.18131C9.82132 1.45181 9.95406 1.76912 10.0035 2.1042C10.053 2.43928 10.0177 2.78142 9.90071 3.0993C9.78374 3.41717 9.58892 3.70064 9.33406 3.92373L8.80373 4.38797L9.48506 4.5684C10.81 4.91927 11.9679 5.72772 12.7539 6.85057L13.946 8.55376C14.007 8.6457 14.0299 8.7578 14.0097 8.86636C13.9894 8.97585 13.9269 9.07299 13.8357 9.13687C13.7444 9.20075 13.6318 9.22627 13.5219 9.20794C13.4131 9.18978 13.3155 9.12996 13.25 9.04122L12.0579 7.3381L12.0578 7.33794C11.8815 7.08631 11.6821 6.85161 11.4623 6.63689L10.8253 6.01453V6.90513V15.2004C10.8253 15.3132 10.7805 15.4213 10.7008 15.501C10.6211 15.5807 10.513 15.6254 10.4003 15.6254C10.2875 15.6254 10.1794 15.5807 10.0997 15.501L9.83458 15.7661L10.0997 15.501C10.02 15.4213 9.97526 15.3132 9.97526 15.2004V12.0004V11.6254H9.60026H6.40022H6.02522V12.0004V15.2004C6.02522 15.3132 5.98044 15.4213 5.90074 15.501C5.82103 15.5807 5.71293 15.6254 5.60021 15.6254C5.48749 15.6254 5.37939 15.5807 5.29968 15.501C5.21998 15.4213 5.1752 15.3132 5.1752 15.2004V6.90433V6.01386L4.53817 6.63606C4.31834 6.85078 4.11898 7.0855 3.94266 7.33717L3.94246 7.33746L2.75121 9.0413C2.68568 9.12999 2.58819 9.18978 2.47934 9.20794C2.36949 9.22627 2.25683 9.20075 2.1656 9.13687C2.07438 9.07299 2.01187 8.97585 1.99153 8.86636C1.97136 8.75781 1.99423 8.64572 2.05522 8.55378L3.24735 6.85143L3.2474 6.85135C4.03329 5.72847 5.19128 4.92001 6.5162 4.56921L7.19881 4.38847L6.66679 3.92416C6.44934 3.73439 6.2751 3.50021 6.1558 3.2374C6.0365 2.97459 5.97492 2.68927 5.97521 2.40065Z" stroke="white" stroke-width="0.75"/>
</g>
<defs>
<clipPath id="clip0_632_847">
<rect width="16" height="16" fill="white"/>
</clipPath>
</defs>
</svg>
