<svg width="104" height="57" viewBox="0 0 104 57" fill="none" xmlns="http://www.w3.org/2000/svg">
<path d="M18.5 24C9.24096 23.8642 1 40 1 40V57H103V1C103 1 95.2494 24.8565 80.5 24C72.0366 23.5085 65.9775 17.5367 57.5 17.5C45.8726 17.4496 46.5462 38.3731 35 37C26.8541 36.0313 26.7025 24.1203 18.5 24Z" fill="url(#paint0_linear_2301_760)"/>
<path d="M1 40C1 40 9.24096 23.8642 18.5 24C26.7025 24.1203 26.8541 36.0313 35 37C46.5462 38.3731 45.8726 17.4496 57.5 17.5C65.9775 17.5367 72.0366 23.5085 80.5 24C95.2494 24.8565 103 1 103 1" stroke="#008D21"/>
<defs>
<linearGradient id="paint0_linear_2301_760" x1="52" y1="1" x2="52" y2="65" gradientUnits="userSpaceOnUse">
<stop stop-color="#2AD352"/>
<stop offset="1" stop-color="white" stop-opacity="0"/>
</linearGradient>
</defs>
</svg>
