<svg width="48" height="48" viewBox="0 0 48 48" fill="none" xmlns="http://www.w3.org/2000/svg">
<circle cx="24" cy="24" r="23.5" fill="white" stroke="#CECECE"/>
<path d="M24.0165 16.425C21.2582 16.425 19.0165 18.6667 19.0165 21.425V23.8334C19.0165 24.3417 18.7998 25.1167 18.5415 25.55L17.5832 27.1417C16.9915 28.125 17.3998 29.2167 18.4832 29.5834C22.0748 30.7834 25.9498 30.7834 29.5415 29.5834C30.5498 29.2501 30.9915 28.0584 30.4415 27.1417L29.4832 25.55C29.2332 25.1167 29.0165 24.3417 29.0165 23.8334V21.425C29.0165 18.675 26.7665 16.425 24.0165 16.425Z" stroke="#021536" stroke-width="1.5" stroke-miterlimit="10" stroke-linecap="round"/>
<path d="M25.5584 16.6667C25.3001 16.5917 25.0334 16.5334 24.7584 16.5C23.9584 16.4 23.1918 16.4584 22.4751 16.6667C22.7168 16.05 23.3168 15.6167 24.0168 15.6167C24.7168 15.6167 25.3168 16.05 25.5584 16.6667Z" stroke="#021536" stroke-width="1.5" stroke-miterlimit="10" stroke-linecap="round" stroke-linejoin="round"/>
<path d="M26.5166 29.8833C26.5166 31.2583 25.3916 32.3833 24.0166 32.3833C23.3333 32.3833 22.6999 32.1 22.2499 31.65C21.7999 31.2 21.5166 30.5666 21.5166 29.8833" stroke="#021536" stroke-width="1.5" stroke-miterlimit="10"/>
</svg>
