<svg width="16" height="16" viewBox="0 0 16 16" fill="none" xmlns="http://www.w3.org/2000/svg">
<g clip-path="url(#clip0_632_852)">
<path d="M15.6651 7.17582L14.5741 6.04626C14.5324 6.00298 14.5011 5.9508 14.4825 5.89366C14.4639 5.83651 14.4585 5.77588 14.4668 5.71635L14.6858 4.16185C14.7758 3.52445 14.3493 2.93842 13.7158 2.82754L12.1694 2.55635C12.1101 2.54581 12.054 2.52189 12.0054 2.48641C11.9567 2.45093 11.9168 2.40483 11.8886 2.3516L11.1538 0.965541C10.8521 0.396134 10.1622 0.172072 9.58348 0.455603L8.17385 1.14554C8.11968 1.17185 8.06024 1.18553 8.00001 1.18553C7.93978 1.18553 7.88034 1.17185 7.82617 1.14554L6.41654 0.455603C5.83748 0.172041 5.14829 0.396103 4.8462 0.965541L4.11145 2.3516C4.05426 2.46054 3.95151 2.53473 3.8306 2.55635L2.2846 2.82754C1.65067 2.93801 1.22457 3.52445 1.31457 4.16145L1.53323 5.71632C1.55023 5.83764 1.5116 5.95814 1.42585 6.04623L0.334916 7.17579C0.120162 7.39647 0 7.69224 0 8.00017C0 8.30809 0.120162 8.60386 0.334916 8.82454L1.42585 9.9541C1.46756 9.99738 1.49889 10.0496 1.51749 10.1067C1.53609 10.1639 1.54147 10.2245 1.53323 10.284L1.3142 11.8385C1.2242 12.4759 1.65067 13.0619 2.2842 13.1728L3.83057 13.444C3.88987 13.4546 3.94597 13.4785 3.99464 13.514C4.0433 13.5494 4.08324 13.5955 4.11142 13.6488L4.84617 15.0348C5.14826 15.6042 5.83782 15.8283 6.41651 15.5448L7.82614 14.8548C7.88031 14.8285 7.93975 14.8148 7.99998 14.8148C8.06021 14.8148 8.11965 14.8285 8.17382 14.8548L9.58345 15.5448C9.75304 15.6278 9.93189 15.6672 10.108 15.6672C10.533 15.6672 10.9405 15.4374 11.1538 15.0349L11.8885 13.6488C11.9457 13.5399 12.0484 13.4657 12.1694 13.444L13.7154 13.1729C14.3493 13.0624 14.7754 12.4759 14.6854 11.8389L14.4667 10.2841C14.4497 10.1628 14.4883 10.0423 14.5741 9.95417L15.665 8.8246C15.8798 8.60394 16 8.30817 16 8.00023C16 7.69229 15.8799 7.3965 15.6651 7.17582ZM15.096 8.27523L14.0051 9.40401C13.749 9.66901 13.6319 10.0298 13.6833 10.3945L13.902 11.949C13.9168 12.0506 13.8913 12.154 13.831 12.2372C13.7707 12.3203 13.6803 12.3766 13.579 12.394L12.0323 12.6652C11.6691 12.729 11.362 12.9526 11.1894 13.2783L10.4546 14.664C10.3542 14.854 10.1247 14.929 9.93117 14.8344L8.52154 14.144C8.35851 14.0644 8.17926 14.0243 8.00004 14.0243C7.82082 14.0243 7.64154 14.0644 7.47854 14.1444L6.06892 14.8339C5.87614 14.929 5.64592 14.854 5.54548 14.664L4.81073 13.2779C4.63804 12.9519 4.33054 12.7286 3.96704 12.6652L2.42104 12.3937C2.31985 12.3763 2.22944 12.3201 2.16905 12.237C2.10867 12.154 2.08307 12.0506 2.0977 11.949L2.31673 10.3945C2.3681 10.0298 2.25104 9.66904 1.99532 9.40442L0.90401 8.27523C0.832483 8.20154 0.792477 8.10288 0.792477 8.00018C0.792477 7.89749 0.832483 7.79883 0.90401 7.72514L1.99495 6.59635C2.25107 6.33135 2.3681 5.97054 2.31673 5.60585L2.09807 4.05135C2.08328 3.94972 2.10875 3.84632 2.16907 3.76319C2.2294 3.68006 2.3198 3.62378 2.42101 3.60632L3.96779 3.33513C4.33092 3.27138 4.63804 3.04773 4.8107 2.72207L5.54545 1.33638C5.64589 1.14632 5.87614 1.07217 6.06889 1.16601L7.47851 1.85635C7.80454 2.01551 8.19548 2.01588 8.52154 1.85598L9.93117 1.16645C10.1243 1.07142 10.3542 1.14635 10.4546 1.33642L11.1894 2.72248C11.362 3.04851 11.6695 3.27182 12.033 3.33517L13.579 3.60673C13.6802 3.62413 13.7706 3.68034 13.831 3.76338C13.8914 3.84643 13.917 3.94975 13.9024 4.05138L13.6834 5.60589C13.632 5.97057 13.749 6.33135 14.0048 6.59598L15.0961 7.72514C15.1676 7.79883 15.2076 7.89749 15.2076 8.00019C15.2076 8.10289 15.1676 8.20154 15.096 8.27523Z" fill="white"/>
<path d="M10.6528 5.34749C10.4983 5.19296 10.248 5.19296 10.0935 5.34749L5.34652 10.0944C5.19198 10.249 5.19198 10.4993 5.34652 10.6538C5.42377 10.7311 5.52498 10.7697 5.6262 10.7697C5.72742 10.7697 5.82864 10.7311 5.90589 10.6538L10.6528 5.90687C10.8073 5.75234 10.8073 5.50202 10.6528 5.34749ZM7.60564 6.02352C7.60564 5.15046 6.89561 4.44043 6.02255 4.44043C5.14948 4.44043 4.43945 5.15046 4.43945 6.02352C4.43945 6.89659 5.14948 7.60662 6.02255 7.60662C6.89561 7.60662 7.60564 6.89659 7.60564 6.02352ZM5.23064 6.02352C5.23064 5.58699 5.58605 5.23159 6.02258 5.23159C6.45911 5.23159 6.81452 5.58699 6.81452 6.02352C6.81452 6.46005 6.45911 6.81546 6.02258 6.81546C5.58602 6.81546 5.23064 6.46005 5.23064 6.02352ZM9.97677 8.39468C9.1037 8.39468 8.39367 9.10471 8.39367 9.97777C8.39367 10.8508 9.1037 11.5609 9.97677 11.5609C10.8498 11.5609 11.5599 10.8508 11.5599 9.97777C11.5599 9.10471 10.8498 8.39468 9.97677 8.39468ZM9.97677 10.7697C9.54023 10.7697 9.18483 10.4143 9.18483 9.97774C9.18483 9.54121 9.54023 9.1858 9.97677 9.1858C10.4133 9.1858 10.7687 9.54121 10.7687 9.97774C10.7687 10.4143 10.4133 10.7697 9.97677 10.7697Z" fill="white"/>
</g>
<defs>
<clipPath id="clip0_632_852">
<rect width="16" height="16" fill="white"/>
</clipPath>
</defs>
</svg>
