<svg width="16" height="16" viewBox="0 0 16 16" fill="none" xmlns="http://www.w3.org/2000/svg">
<path d="M14.1665 15.9999H1.83323C0.821898 15.9999 0 15.1778 0 14.1666V4.49998C0 3.48865 0.821867 2.66675 1.83323 2.66675H4.16658C4.44258 2.66675 4.66658 2.89075 4.66658 3.16674C4.66658 3.44274 4.44258 3.66674 4.16658 3.66674H1.83323C1.37386 3.66674 0.99999 4.04064 0.99999 4.49998V14.1666C0.99999 14.6258 1.37389 14.9999 1.83323 14.9999H14.1665C14.6259 14.9999 14.9999 14.6258 14.9999 14.1666V8.49994C14.9999 8.22394 15.2239 7.99995 15.4998 7.99995C15.7758 7.99995 15.9998 8.22394 15.9998 8.49994V14.1666C15.9998 15.1779 15.1778 15.9999 14.1665 15.9999Z" fill="#202020" fill-opacity="0.75"/>
<path d="M4.49925 10.6581C4.46216 10.6583 4.4252 10.6538 4.38925 10.6447C4.16331 10.5921 4 10.3987 4 10.1668V9.16679C4 5.58283 6.91597 2.66686 10.4999 2.66686H10.6666V0.500127C10.6666 0.400373 10.6965 0.302913 10.7523 0.220244C10.8082 0.137575 10.8874 0.0734642 10.9799 0.0361311C11.0723 -0.00107697 11.1738 -0.00978843 11.2712 0.011117C11.3686 0.0320224 11.4575 0.0815889 11.5265 0.153442L15.8599 4.6534C16.0465 4.84677 16.0465 5.15339 15.8599 5.34677L11.5265 9.84672C11.3852 9.99406 11.1671 10.0395 10.9799 9.96403C10.8874 9.9267 10.8082 9.86259 10.7523 9.77992C10.6965 9.69725 10.6666 9.59979 10.6666 9.50004V7.33343H9.87457C7.77731 7.33343 5.89254 8.4987 4.9553 10.374C4.86924 10.5474 4.68859 10.6581 4.49925 10.6581ZM10.4999 3.66685C7.6999 3.66685 5.38133 5.77011 5.04199 8.48002C6.25385 7.12812 7.9919 6.33344 9.87457 6.33344H11.1666C11.4426 6.33344 11.6666 6.55744 11.6666 6.83344V8.26005L14.8058 5.00008L11.6666 1.74011V3.16685C11.6666 3.44285 11.4426 3.66685 11.1666 3.66685H10.4999Z" fill="#202020" fill-opacity="0.75"/>
</svg>
