<svg width="80" height="80" viewBox="0 0 80 80" fill="none" xmlns="http://www.w3.org/2000/svg">
<path d="M39.9998 6.6665C21.6665 6.6665 6.6665 21.6665 6.6665 39.9998C6.6665 58.3332 21.6665 73.3332 39.9998 73.3332C58.3332 73.3332 73.3332 58.3332 73.3332 39.9998C73.3332 21.6665 58.3332 6.6665 39.9998 6.6665ZM54.3332 31.9998L38.9998 51.9998C38.3332 52.6665 37.3332 53.3332 36.3332 53.3332C35.3332 53.3332 34.3332 52.9998 33.6665 51.9998L25.6665 41.6665C24.6665 40.3332 24.6665 37.9998 26.3332 36.9998C27.9998 35.9998 29.9998 35.9998 30.9998 37.6665L36.3332 44.6665L48.9998 27.9998C49.9998 26.6665 52.3332 26.3332 53.6665 27.3332C55.3332 28.3332 55.3332 30.3332 54.3332 31.9998Z" fill="#02BC7D"/>
</svg>
