<svg width="80" height="80" viewBox="0 0 80 80" fill="none" xmlns="http://www.w3.org/2000/svg">
<g clip-path="url(#clip0_864_1288)">
<path d="M40 0C17.9094 0 0 17.9031 0 40C0 62.0969 17.9094 80 40 80C62.0906 80 80 62.0859 80 40C80 17.9141 62.0906 0 40 0Z" fill="#2AD352"/>
<path d="M-0.000206994 40.0001C-0.00923656 46.6117 1.62803 53.1216 4.76386 58.9422C8.75898 60.1152 12.9017 60.7093 17.0654 60.7063C41.1123 60.7063 60.606 41.2126 60.606 17.1657C60.6096 12.9359 59.9969 8.72817 58.7873 4.67506C53.0047 1.59493 46.5515 -0.0108552 39.9998 5.52282e-05C17.9092 5.52282e-05 -0.000206994 17.9032 -0.000206994 40.0001Z" fill="#74DA7F"/>
<path d="M62.8125 33.3716L38.7703 58.62C38.1151 59.3074 37.3279 59.8554 36.4559 60.2313C35.5838 60.6071 34.6449 60.8031 33.6953 60.8075H33.6641C32.7198 60.8078 31.785 60.6183 30.9154 60.2503C30.0457 59.8823 29.2589 59.3433 28.6016 58.6653L15.8438 45.5247C15.1846 44.863 14.6634 44.077 14.3104 43.2123C13.9574 42.3476 13.7797 41.4213 13.7876 40.4874C13.7955 39.5534 13.9888 38.6303 14.3562 37.7717C14.7237 36.913 15.2581 36.1359 15.9283 35.4854C16.5986 34.835 17.3913 34.3241 18.2606 33.9824C19.1299 33.6408 20.0583 33.4752 20.9921 33.4953C21.9259 33.5154 22.8464 33.7207 23.7001 34.0994C24.5539 34.4781 25.324 35.0226 25.9656 35.7013L33.6141 43.5794L52.5969 23.645C53.2328 22.9631 53.9976 22.4141 54.847 22.0297C55.6964 21.6453 56.6137 21.4331 57.5456 21.4055C58.4776 21.3778 59.4058 21.5351 60.2765 21.8685C61.1473 22.2018 61.9433 22.7045 62.6185 23.3474C63.2938 23.9903 63.8349 24.7607 64.2105 25.6141C64.5861 26.4675 64.7888 27.3868 64.8068 28.319C64.8248 29.2512 64.6579 30.1777 64.3156 31.045C63.9732 31.9122 63.4624 32.703 62.8125 33.3716Z" fill="white"/>
</g>
<defs>
<clipPath id="clip0_864_1288">
<rect width="80" height="80" fill="white"/>
</clipPath>
</defs>
</svg>
